<?xml version="1.0" encoding="utf-8"?>
<!-- Generator: Adobe Illustrator 25.0.1, SVG Export Plug-In . SVG Version: 6.00 Build 0)  -->
<svg version="1.1" id="Layer_1" focusable="false" xmlns="http://www.w3.org/2000/svg" xmlns:xlink="http://www.w3.org/1999/xlink"
	 x="0px" y="0px" viewBox="0 0 448 512" style="enable-background:new 0 0 448 512;" xml:space="preserve">
<style type="text/css">
	.st0{fill:#9696A2;}
</style>
<path class="st0" d="M34.9,289.5l-22.2-22.2c-9.4-9.4-9.4-24.6,0-33.9L207,39c9.4-9.4,24.6-9.4,33.9,0l194.3,194.3
	c9.4,9.4,9.4,24.6,0,33.9L413,289.4c-9.5,9.5-25,9.3-34.3-0.4L264,168.6V456c0,13.3-10.7,24-24,24h-32c-13.3,0-24-10.7-24-24V168.6
	L69.2,289.1C59.9,298.9,44.4,299.1,34.9,289.5z"/>
</svg>
