<?xml version="1.0" encoding="utf-8"?>
<!-- Generator: Adobe Illustrator 25.0.1, SVG Export Plug-In . SVG Version: 6.00 Build 0)  -->
<svg version="1.1" id="Capa_1" xmlns="http://www.w3.org/2000/svg" xmlns:xlink="http://www.w3.org/1999/xlink" x="0px" y="0px"
	 viewBox="0 0 512 512" style="enable-background:new 0 0 512 512;" xml:space="preserve">
<style type="text/css">
	.st0{fill:#E4F6FF;}
	.st1{fill:#8FDDC1;}
	.st2{fill:#407093;}
	.st3{fill:#FFE07D;}
	.st4{fill:#365E7D;}
</style>
<path class="st0" d="M435.2,0.5H196.4l0.2,511.5h238.6c42.4,0,76.8-34.4,76.8-76.7V77.2C512,34.9,477.6,0.5,435.2,0.5z"/>
<path class="st1" d="M68.1,511.8h155V0.2H76.8C34.4,0.2,0,34.6,0,77v358.4C0,474.9,29.8,507.4,68.1,511.8z"/>
<g>
	<g>
		<path class="st2" d="M312.7,179.3c-37.5,0-67.9-30.5-67.9-67.9s30.5-67.9,67.9-67.9c13.6,0,26.8,4,38,11.6
			c6.2,4.2,7.9,12.7,3.7,18.9c-4.2,6.2-12.7,7.9-18.9,3.7c-6.7-4.5-14.6-6.9-22.8-6.9c-22.4,0-40.7,18.3-40.7,40.7
			c0,22.5,18.3,40.7,40.7,40.7c8.3,0,15.3-2.5,20.8-7.3c1.1-1,2.1-2,3-3.1c4.8-5.8,13.4-6.5,19.2-1.7c5.8,4.8,6.5,13.4,1.7,19.2
			c-1.8,2.1-3.7,4.1-5.8,6C341.1,174.4,327.7,179.3,312.7,179.3z"/>
	</g>
</g>
<g>
	<g>
		<path class="st2" d="M423,179.3c-6.8,0-12.9-4.3-15.1-10.7L370.7,61.5c-2.5-7.1,1.3-14.9,8.4-17.3c7.1-2.5,14.9,1.3,17.3,8.4
			l26.4,76L447.9,53c2.4-7.1,10.1-11,17.2-8.6c7.1,2.4,11,10.1,8.6,17.2l-35.5,106.8c-2.2,6.6-8.3,10.9-15.1,11
			C423.1,179.3,423.1,179.3,423,179.3L423,179.3z"/>
	</g>
</g>
<g>
	<circle class="st3" cx="118.5" cy="111.4" r="66.9"/>
	<path class="st2" d="M118.5,127.2c-21.3,0-39.3,14.2-45.1,33.7c11.9,10.9,27.7,17.5,45.1,17.5s33.2-6.6,45.1-17.5
		C157.8,141.4,139.8,127.2,118.5,127.2z"/>
	<circle class="st4" cx="118.5" cy="109.4" r="23.7"/>
</g>
<g>
	<path class="st3" d="M174.2,277.7H62.7c-6.2,0-11.2-4-11.2-9v-22.1c0-5,5-9,11.2-9h111.6c6.2,0,11.2,4,11.2,9v22.1
		C185.4,273.7,180.4,277.7,174.2,277.7z"/>
	<path class="st3" d="M174.2,359.7H62.7c-6.2,0-11.2-4-11.2-9v-22.1c0-5,5-9,11.2-9h111.6c6.2,0,11.2,4,11.2,9v22.1
		C185.4,355.6,180.4,359.7,174.2,359.7z"/>
	<path class="st3" d="M174.2,441.6H62.7c-6.2,0-11.2-4-11.2-9v-22.1c0-5,5-9,11.2-9h111.6c6.2,0,11.2,4,11.2,9v22.1
		C185.4,437.6,180.4,441.6,174.2,441.6z"/>
</g>
<g>
	<g>
		<path class="st2" d="M463.4,252.6H255.8c-6.1,0-11.1-3.5-11.1-7.7s5-7.7,11.1-7.7h207.6c6.1,0,11.1,3.5,11.1,7.7
			C474.5,249.1,469.5,252.6,463.4,252.6L463.4,252.6z"/>
	</g>
	<g>
		<path class="st2" d="M359.6,300H255.8c-6.1,0-11.1-3.5-11.1-7.7s5-7.7,11.1-7.7h103.8c6.1,0,11.1,3.5,11.1,7.7
			S365.7,300,359.6,300z"/>
	</g>
	<g>
		<path class="st2" d="M463.4,347.4H255.8c-6.1,0-11.1-3.5-11.1-7.7s5-7.7,11.1-7.7h207.6c6.1,0,11.1,3.5,11.1,7.7
			C474.5,343.9,469.5,347.4,463.4,347.4L463.4,347.4z"/>
	</g>
	<g>
		<path class="st2" d="M463.4,394.8H255.8c-6.1,0-11.1-3.5-11.1-7.7s5-7.7,11.1-7.7h207.6c6.1,0,11.1,3.5,11.1,7.7
			S469.5,394.8,463.4,394.8L463.4,394.8z"/>
	</g>
	<g>
		<path class="st2" d="M359.6,443.5H255.8c-6.1,0-11.1-3.5-11.1-7.7s5-7.7,11.1-7.7h103.8c6.1,0,11.1,3.5,11.1,7.7
			S365.7,443.5,359.6,443.5z"/>
	</g>
</g>
</svg>
