<?xml version="1.0" encoding="utf-8"?>
<!-- Generator: Adobe Illustrator 25.0.1, SVG Export Plug-In . SVG Version: 6.00 Build 0)  -->
<svg version="1.1" id="Layer_1" xmlns="http://www.w3.org/2000/svg" xmlns:xlink="http://www.w3.org/1999/xlink" x="0px" y="0px"
	 viewBox="0 0 512 512" style="enable-background:new 0 0 512 512;" xml:space="preserve">
<style type="text/css">
	.st0{fill:#797CB6;}
</style>
<path class="st0" d="M416,0H96C69.5,0,46.9,9.5,28.2,28.2S0,69.6,0,96v320c0,26.4,9.4,49,28.2,67.8C47,502.6,69.6,512,96,512h320
	c26.4,0,49-9.4,67.8-28.2c18.8-18.8,28.2-41.4,28.2-67.8V96c0-26.5-9.4-49.1-28.2-67.9C465.1,9.4,442.5,0,416,0z M426.7,352
	c0,8.9-3.1,16.6-9.3,22.8s-13.8,9.4-22.7,9.4H117.4c-8.9,0-16.5-3.1-22.7-9.4c-6.2-6.2-9.4-13.8-9.4-22.7V206.7
	c2.2,1.8,5.7,4.8,10.3,9c4.7,4.2,8.4,7.2,11,9c10.4,7.1,26.3,17.4,47.5,30.8c21.2,13.4,36.9,23.7,47.2,30.8c21.7,15.3,40,23,54.6,23
	c14.6,0,32.9-7.7,54.6-23c11.8-8,28.6-19,50.5-33s36.6-23.4,44.1-28.3c7.3-4.4,14.4-10.6,21.3-18.3V352z M416.1,185.6
	c-7,8.8-14.4,15.7-22.2,20.8l-89,58c-0.6,0.4-2.5,1.7-5.6,3.8s-5.4,3.7-7,4.6c-1.6,1-3.9,2.5-7,4.3c-3.1,1.9-5.7,3.3-7.8,4.3
	c-2.1,1-4.5,2.1-7.2,3.2c-2.7,1.1-5.2,1.9-7.5,2.5c-2.4,0.6-4.6,0.8-6.8,0.8s-4.5-0.3-6.8-0.8c-2.4-0.6-4.9-1.4-7.5-2.5
	c-2.7-1.1-5.1-2.2-7.2-3.2c-2.1-1-4.7-2.5-7.8-4.3s-5.4-3.3-7-4.3c-1.6-1-3.9-2.6-7-4.6c-3.1-2.1-5-3.3-5.6-3.8
	c-8.7-5.8-23-15-43.2-27.7C143.7,224,128.5,214.2,118,207c-8.3-5.6-15.7-12.7-22.5-21.5c-6.8-8.8-10.2-17.3-10.2-25.5
	c0-8.9,3.1-16.5,9.4-22.7c6.2-6.2,13.8-9.4,22.7-9.4h277.3c9.1,0,16.8,3.2,22.9,9.7c6.1,6.5,9.1,14.3,9.1,23.4
	C426.7,168.5,423.2,176.7,416.1,185.6z"/>
</svg>
