<?xml version="1.0" encoding="utf-8"?>
<!-- Generator: Adobe Illustrator 25.0.1, SVG Export Plug-In . SVG Version: 6.00 Build 0)  -->
<svg version="1.1" id="Layer_1" xmlns="http://www.w3.org/2000/svg" xmlns:xlink="http://www.w3.org/1999/xlink" x="0px" y="0px"
	 viewBox="0 0 512 512" style="enable-background:new 0 0 512 512;" xml:space="preserve">
<style type="text/css">
	.st0{fill:#4285F4;}
	.st1{fill:#FFFFFF;}
</style>
<path class="st0" d="M76.8,0h358.4C477.6,0,512,34.4,512,76.8v358.4c0,42.4-34.4,76.8-76.8,76.8H76.8C34.4,512,0,477.6,0,435.2V76.8
	C0,34.4,34.4,0,76.8,0z"/>
<path class="st1" d="M207,40.7L63.5,166.8h92.6c6.7,60.4,55,85.9,104.6,89.9c-9.4,24.1-5.4,36.2,9.4,52.3
	c-57.7,1.3-138.2,34.9-138.2,89.9c5.4,60.4,84.5,72.4,123.4,72.4c51,1.3,108.7-25.5,120.7-72.4c5.4-47-13.4-72.4-41.6-95.2
	c-30.9-24.1-37.6-37.6-28.2-53.7c20.1-22.8,47-36.2,52.3-68.4c2.7-22.8-2.7-37.6-8-57.7l60.4-51l-1.3,21.5c-4,2.7-6.7,8-6.7,12.1
	v138.2c2.7,17.4,29.5,14.8,30.9,0V106.4c0-4-2.7-9.4-6.7-10.7V62.1l21.5-21.5H207z M284.8,229.8C203,243.2,168.1,113.1,233.9,97
	C309,82.3,345.2,212.4,284.8,229.8z M278.1,327.7c80.5,17.4,81.8,84.5,13.4,104.6c-59,12.1-110-5.4-108.7-40.2
	C182.9,358.6,229.8,327.7,278.1,327.7z"/>
</svg>
