<?xml version="1.0" encoding="utf-8"?>
<!-- Generator: Adobe Illustrator 25.0.1, SVG Export Plug-In . SVG Version: 6.00 Build 0)  -->
<svg version="1.1" id="Layer_1" xmlns="http://www.w3.org/2000/svg" xmlns:xlink="http://www.w3.org/1999/xlink" x="0px" y="0px"
	 viewBox="0 0 1366 666" style="enable-background:new 0 0 1366 666;" xml:space="preserve">
<style type="text/css">
	.st0{fill:url(#SVGID_1_);}
	.st1{fill:url(#SVGID_2_);}
	.st2{fill:#262326;}
	.st3{fill:url(#SVGID_3_);}
	.st4{fill-rule:evenodd;clip-rule:evenodd;fill:url(#SVGID_4_);}
	.st5{fill-rule:evenodd;clip-rule:evenodd;fill:#464646;}
	.st6{fill-rule:evenodd;clip-rule:evenodd;fill:#888C89;}
	.st7{fill-rule:evenodd;clip-rule:evenodd;fill:#737373;}
	.st8{fill-rule:evenodd;clip-rule:evenodd;fill:#1A1A1A;}
	.st9{fill-rule:evenodd;clip-rule:evenodd;fill:#B8A779;}
	.st10{opacity:0.3608;}
	.st11{fill-rule:evenodd;clip-rule:evenodd;fill:#3E3E3E;}
	.st12{fill-rule:evenodd;clip-rule:evenodd;fill:#CCCCCC;}
	.st13{fill-rule:evenodd;clip-rule:evenodd;fill:#333333;}
	.st14{opacity:0.5;}
	.st15{fill-rule:evenodd;clip-rule:evenodd;fill:#999999;}
	.st16{fill-rule:evenodd;clip-rule:evenodd;fill:url(#SVGID_5_);}
	.st17{fill:#333333;}
	.st18{fill:#CCB092;}
	.st19{fill:#1A1A1A;}
	.st20{fill:#34F762;}
	.st21{fill:#1B1464;}
	.st22{opacity:0.5;fill:#999999;enable-background:new    ;}
	.st23{fill:#1B1425;}
	.st24{fill:#FF0000;}
	.st25{fill:#42210B;stroke:#FF0000;stroke-miterlimit:10;}
	.st26{fill:#F7931E;stroke:#F7931E;stroke-miterlimit:10;}
	.st27{fill:#7AC943;stroke:#7AC943;stroke-miterlimit:10;}
	.st28{opacity:0.55;}
	.st29{fill:url(#SVGID_6_);}
	.st30{fill:#3F3E41;}
	.st31{fill:#666666;}
	.st32{fill:url(#SVGID_7_);}
	.st33{fill:url(#SVGID_8_);}
</style>
<g>
	<g>
		
			<linearGradient id="SVGID_1_" gradientUnits="userSpaceOnUse" x1="1099.2469" y1="13.5986" x2="1088.3829" y2="32.4157" gradientTransform="matrix(1 0 0 -1 0 668)">
			<stop  offset="0" style="stop-color:#000000"/>
			<stop  offset="0.4731" style="stop-color:#000000"/>
			<stop  offset="0.5438" style="stop-color:#000000"/>
			<stop  offset="0.6117" style="stop-color:#040303"/>
			<stop  offset="0.6765" style="stop-color:#0F0D0C"/>
			<stop  offset="0.74" style="stop-color:#231E1A"/>
			<stop  offset="0.8029" style="stop-color:#3E362F"/>
			<stop  offset="0.8652" style="stop-color:#60554A"/>
			<stop  offset="0.9262" style="stop-color:#8B796A"/>
			<stop  offset="0.9448" style="stop-color:#998675"/>
			<stop  offset="0.9526" style="stop-color:#958577"/>
			<stop  offset="1" style="stop-color:#808080"/>
		</linearGradient>
		<path class="st0" d="M1085.2,645.4c0,6.4,3.9,11.5,8.8,11.5s8.9-5.1,8.9-11.5s-3.9-11.5-8.8-11.5
			C1089.2,634,1085.2,639.1,1085.2,645.4z M1088.7,645.5c0-4.5,2.4-8,5.4-8c2.9,0,5.3,3.6,5.3,8.1s-2.4,8-5.4,8
			C1091,653.5,1088.7,649.9,1088.7,645.5z"/>
	</g>
	<g>
		
			<linearGradient id="SVGID_2_" gradientUnits="userSpaceOnUse" x1="949.5093" y1="5.7434" x2="963.9728" y2="11.5869" gradientTransform="matrix(1.1666 4.508274e-04 -4.508274e-04 -1.0785 -19.7659 654.2307)">
			<stop  offset="0" style="stop-color:#5B5553"/>
			<stop  offset="1.047402e-02" style="stop-color:#575250"/>
			<stop  offset="0.1018" style="stop-color:#3C3838"/>
			<stop  offset="0.1938" style="stop-color:#282527"/>
			<stop  offset="0.2863" style="stop-color:#1C1A1D"/>
			<stop  offset="0.3797" style="stop-color:#18161A"/>
		</linearGradient>
		<path class="st1" d="M1087.1,645.4c0,5.4,3.9,9.8,8.8,9.9s8.9-4.4,8.9-9.8s-3.9-9.8-8.8-9.9C1091.1,635.6,1087.2,640,1087.1,645.4
			z M1089.7,645.5c0-4.1,2.8-7.4,6.3-7.4s6.2,3.3,6.2,7.4s-2.8,7.4-6.3,7.4S1089.7,649.5,1089.7,645.5z"/>
	</g>
	<g>
		
			<rect x="1104.9" y="650.6" transform="matrix(5.118356e-03 -1 1 5.118356e-03 438.5966 1767.1257)" class="st2" width="4.9" height="25"/>
	</g>
	<g>
		
			<linearGradient id="SVGID_3_" gradientUnits="userSpaceOnUse" x1="1092.7625" y1="28.8126" x2="1120.6825" y2="28.8126" gradientTransform="matrix(1 5.118423e-03 5.118423e-03 -1 0.5712 667.789)">
			<stop  offset="0" style="stop-color:#B0A599"/>
			<stop  offset="1.240855e-02" style="stop-color:#9B9287"/>
			<stop  offset="3.777342e-02" style="stop-color:#777067"/>
			<stop  offset="6.633654e-02" style="stop-color:#57514B"/>
			<stop  offset="9.791768e-02" style="stop-color:#3B3834"/>
			<stop  offset="0.1336" style="stop-color:#252320"/>
			<stop  offset="0.1752" style="stop-color:#141312"/>
			<stop  offset="0.2267" style="stop-color:#090808"/>
			<stop  offset="0.2989" style="stop-color:#020202"/>
			<stop  offset="0.4994" style="stop-color:#000000"/>
			<stop  offset="0.5566" style="stop-color:#050505"/>
			<stop  offset="0.6201" style="stop-color:#121212"/>
			<stop  offset="0.6473" style="stop-color:#1A1A1A"/>
			<stop  offset="0.7568" style="stop-color:#070707"/>
			<stop  offset="0.8107" style="stop-color:#110D17"/>
			<stop  offset="0.9158" style="stop-color:#2B1E41"/>
			<stop  offset="1" style="stop-color:#422D67"/>
		</linearGradient>
		<path class="st3" d="M1096.9,663.9l20.8,0.1c2,0,3.6-1.6,3.6-3.5l0.2-35.1l-27.9-0.1l-0.2,35.1
			C1093.4,662.3,1095,663.9,1096.9,663.9z"/>
	</g>
</g>
<g>
	
		<radialGradient id="SVGID_4_" cx="1386.6866" cy="-85.9133" r="41.1774" fx="1357.7273" fy="-78.23" gradientTransform="matrix(0.8375 2.475164e-02 5.711664e-03 -1.1106 25.6706 510.7649)" gradientUnits="userSpaceOnUse">
		<stop  offset="0" style="stop-color:#000000;stop-opacity:0.5"/>
		<stop  offset="1" style="stop-color:#000000;stop-opacity:0"/>
	</radialGradient>
	<ellipse class="st4" cx="1185" cy="641.4" rx="33.5" ry="45.3"/>
	<g id="Shape_45_7_">
		<g>
			<path class="st5" d="M1280.6,545c-6.3-9.3-7.3-4.5-5.4,2.4c0.1,0.5-0.1,2.5-0.8,3.4c-7.1,9.8-27.3,40.2-28.9,40.1
				c-8.4-0.5-40.9-4.2-55.5-3.5c-5.4,0.3-18.6,9.2-18.7,6.5c0.6-8.3-6.4-13.5-6.4-13.5s1.1-1.4,1.7-3c1.2-3.1,2.4-7.5,2.4-7.5
				s-7.2-3.4-16.7,5.4c-9-0.1-16.9-0.5-25.9,5.8c-4-1.1-8-2.4-11.5-2c-2.1,0.3-3-0.3-3-0.3c0.9,0.8,0.8,2.1,1.6,2.8
				c5.3,4.4,8.6,8.4,8.6,8.4s-2.1,2.8,0,11.8c1.7,7.3,8.8,11.3,9.5,12.1c3.7,4.4,5.7,8.7,15.2,7.5c6.1-0.7,15.2-12.9,21.2-3.4
				c0.1,0.1-10.4,10.2-11.7,15.6c-0.6,2.4-2.1,7.4-3,10.8c-2.2,8.5,8,10.6,8.6,6.3c0.8-5.9-2.4-5.8,2-8.9c1.9-1.4,10.7-18,10.8-17.9
				c0.2,0.3,4.5,2.6,12.2,4.9c1.9,0.6,3.4,29.1,5.8,28.9c12-1.1,1.8-25.8,7.9-26.1c11.7-0.6,9.2-3.4,28.3-5.1
				c1-0.1,10.6,26.9,11.5,26.8c0.3,0,6.4,3.1,5.2-2.8c-1.6-7.6-5.7-21.6-5.2-21.7c1.4-0.2-0.2,3,1.2,2.8c1-0.2,11.7,25,12.6,24.8
				c2.8-0.5-2.2-25.1,0.6-25.9c1.2-0.3,0.1-10.9-0.1-26.7c-0.1-5.5-3-11.8-4.3-12.1c-0.5-0.1,30-28.5,31.3-41.6
				C1281.5,549.3,1281.1,545.7,1280.6,545z"/>
		</g>
	</g>
	<g id="Shape_46_3_">
		<g>
			<path class="st6" d="M1144.3,600.6c0.2,4.7,0.8,5.2,0.8,5.2s-0.2-6,2.8-7.6c3.1-1.6,5.4-1.8,5.4-1.8S1144,595.9,1144.3,600.6z"/>
		</g>
	</g>
	<g id="Shape_46_copy_3_">
		<g>
			<path class="st6" d="M1136.1,601.7c-0.6-4.6-9.6-2.7-9.6-2.7s2.3-0.2,5.6,0.9s4.1,7,4.1,7S1136.6,606.3,1136.1,601.7z"/>
		</g>
	</g>
	<g id="Shape_46_copy_8_2_">
		<g>
			<path class="st7" d="M1165.6,574.8c-1.1,3.2-7.5,4-7.5,4s1.3,0.8,4.1,1.4c2.2,0.4,2,1.4,2.6,1c1.7-0.9,3.8-11.3,3.8-11.3
				S1166.6,571.6,1165.6,574.8z M1112.8,582.7L1112.8,582.7C1112.7,582.8,1112.7,582.8,1112.8,582.7z M1118.6,584.2
				c-4.8-2.5-6.4-5.1-6.4-5.1s0.6,1.4,0.6,2.3c0,0.7,0.1,1.1,0,1.3c0.2-0.2,0.7-0.5,1.4,0.3c0.2,0.3,1.1-0.2,0.7,0.7
				c-0.3,0.7,0.7,0,1.6,0.8c0.6,0.5,0.6,1,0.3,1.3c0.1-0.2,1-0.2,1.6,0.3s-0.2,1.6,0.4,1.1c1.3-0.9,2.6,4.1,2.6,4.1s0.8-0.9,0.9-2.1
				C1122.4,587.7,1121.4,585.7,1118.6,584.2z"/>
		</g>
	</g>
	<g id="Shape_47_2_">
		<g>
			<path class="st8" d="M1132.8,600.5c-3.2-1.9-5.6-1.4-5.6-1.4s-3.5,0-4.4,1.4s-0.2,3.4-0.2,3.4l0.4,1.4c0,0,5.7,6.8,6.4,7
				c0.4,0.1,4.2,1,4.4,1c0.4,0,1.5-3.4,0.3-3.9c-0.8-0.4-2.3,1.8-3.7,1.6c-2.1-0.2-5.4-3.8-5.7-4.6c-0.8-1.9-1.2-5-1.1-5.1
				c0.8-1.8,3-0.3,3-0.3s-0.1,3.8,3.5,3.7c2.5,0,2.5-0.7,2.8-1c0.3-0.4,1.7,0.8,2.2,2.4c0.2,0.4,0.2,1.5,0.5,2.3
				c0.4,1.4,1.1,2.5,1.2,2.4c0.2-0.2-0.6-4.4-0.8-5.3C1135.3,603.4,1133.9,601.2,1132.8,600.5z M1164.8,599.1
				c-2.9,0.4-3.3,0.4-4.5,0.1s-0.8-2-1.7-3.3c-0.9-1.4-4.7,1-4.7,1s-2.3-0.5-5.5,1.3c-0.8,0.5-1.6,1.5-2.1,2.4
				c-0.5,1-1.1,1.9-0.8,2.3c0.1,0.1-1,7.2-0.7,7.1c0.1,0,1.6-3.5,1.8-4.4c0.2-0.9,0.1-1.4,0.6-3.2c0.3-1.1,0.6-1.9,0.9-1.5
				c0.3,0.3,0.7,1.3,3.1,1.3c3.6,0.1,3.5-3.7,3.5-3.7s2.5-2.8,3.4-1c0.9,1.7,0.1,1.4,1.9,2.7s0.3,0.6,4.1,0.2c1.1-0.1,1.3,3.5,1,4.2
				c-0.9,1.8-3,3.7-4.9,4.7c-0.8,0.4-0.9-1.5-3.7-2c-2.1-0.4-9,1.1-8.8,2.3c0.2,1.4,7.8,3.5,7.9,3.8c0.5,1,7.5-4.2,7.7-4.1
				c0.3,0.2,3.2-1.2,4.2-3.7C1168,604.5,1166.3,598.8,1164.8,599.1z"/>
		</g>
	</g>
	<g id="Shape_47_copy_2_">
		<g>
			<path class="st8" d="M1130.8,584.3c-1.3-2.5-4.1-3.3-4.1-3.3s-3-1.5-6.8-2c-1.6-0.2-7.4,0-7.4,0s4.8,1.8,7.4,3
				c2.3,1,6.8,3.6,6.8,3.6s1.8-0.2,4.1,2.3c1.6,1.7,1.7,2.7,2,3c0.8,0.7,0.6,3.5,1.3,7.2c0.2,1.2,1.3,1.5,2,3
				c0.2-0.2-1.4-5.2-1.4-6.1C1135.1,588.4,1131.3,585.4,1130.8,584.3z M1153.1,578.7c0,0-5.3,2.3-6.1,7.9c-0.1,0.9-1.5,2.3-2,3.3
				c-0.5,0.9,0.1,4.1,0,4.6c-0.2,1.7-1,5.4-0.7,5.3c0.1,0,1.6-1.8,2-3.9c0.2-0.9-0.5-3.5,0-5.3c0.3-1.1,0.8-1.6,1-2
				c0.6-1,0.9-3.9,3-4.9c0,0,2.1-2.8,5.1-3.9c3-1.2,0.8-0.4,2-0.7s1.4-1.9,1.4-2.3c0-1.4,0-1.6,1.4-3.3s1.4-1.6,3.7-3
				c1.1-0.7,3.3-1.4,4.7-1C1158,566.7,1153.1,578.7,1153.1,578.7z"/>
		</g>
	</g>
	<g id="Shape_46_copy_5_2_">
		<g>
			<path class="st6" d="M1149.8,602.5c-1.1-0.3-1.9-1.1-1.9-1.1s-1.3,2.6-0.3,2.5c1.9-0.2,1.5-0.7,3.4-0.6c2.3,0.1,3.1-1.6,3.1-1.6
				S1151.9,603.1,1149.8,602.5z"/>
		</g>
	</g>
	<g id="Shape_46_copy_6_2_">
		<g>
			<path class="st6" d="M1133.2,603.8c0,0-0.3,0.9-2.3,1.3c-1.8,0.4-3.9-1.1-3.9-1.1s1.5,2.5,3.8,1.9c2.5-0.6,3,0.2,3.4-0.1
				C1134.9,604.9,1133.3,603.8,1133.2,603.8z"/>
		</g>
	</g>
	<g id="Shape_46_copy_3_3_">
		<g>
			<path class="st9" d="M1154.7,608.2c-1.6-0.4-3.2,1.5-5.5,1.5c-2.7,0-3-1.8-8.5-1.1c-5.4,0.6-6.9,1-8.5,2.7
				c-0.9,1-2.6,0.4-2.6,0.4s2.2,8.4,13.6,8c7.5-0.2,13.3-7.6,13.3-7.6S1158.9,609.1,1154.7,608.2z"/>
		</g>
	</g>
	<g id="Shape_46_copy_4_2_">
		<g>
			<path class="st8" d="M1140.8,611.2c-2.2,0.1-3.9-0.3-3.9-0.3s1.7,2.2,2.7,3.4c0.8,0.9,0.7,1.4,1.6,1.5c0.6,0.1,0.7-1.2,1.4-2
				c1.6-1.8,2.4-3.1,2.4-3.1S1143.6,611,1140.8,611.2z"/>
		</g>
	</g>
	<g id="Shape_49_3_" class="st10">
		<g>
			<path class="st5" d="M1147.9,609.5c0,0-2.3,6.5-6.7,6.6c-4.1,0-5.7-4.7-7.4-5.9c-0.8-0.6-2.6,1.3-2.6,1.3s2.7,3.7,3.8,4.6
				c1.7,1.4,2.2,1.3,6.1,1c3-0.3,4.5,0.2,6.7-1.6c1.7-1.4,3.2-4.9,3.2-5.6C1151.1,608.4,1147.9,609.5,1147.9,609.5z"/>
		</g>
	</g>
	<g id="Shape_46_copy_10_2_">
		<g>
			<path class="st11" d="M1143.6,607.8c-0.7-1-1.9-1.5-2.8-1.7c-0.6-0.1-1.5,0.2-2.2,0.9c-1.7,1.7-1.8,4-1.8,4s1.4,0.8,4,0.7
				c2.8-0.1,4-0.9,4-0.9S1144.5,609,1143.6,607.8z"/>
		</g>
	</g>
	<g id="Shape_46_copy_7_2_">
		<g>
			<path class="st8" d="M1145.1,575.3c-1.5,3-3.3,13.7-3.7,13.8c0.4-4.9,1-5.1,1.1-9c0.1-1.5,1.5-4.8,1.4-4.7c-0.2,0-3,0.2-4.6,0.3
				c-0.2,2.6-1.4,3.8-1.7,6.5c-0.3,2.4,0.1,5.4,0,7.1c-1.1-2.5,0-12-3.3-12.3c-4.5,1.4-7.2,3.6-7.2,3.6s4.9,2.3,6.4,5.6
				c1.6,3.6,2.3,8.3,2.2,10.7c0.5,1.6,0.4,3.4,1.3,4.6c1.4,2,0.5,4.9,1,6.9c0.6,2,1.2,3.9,1.7,4.6c0.6,1,1.4-1.6,1.7-5.3
				c0.2-1.9-0.4-3.6,0-6.2c0.2-1.1,1.7-3,2-3.9c1.2-4.3-0.4-5.6,0.7-8c1.1-2.3,1.2-9.6,7.8-14.3
				C1151.9,575.3,1147.1,575.1,1145.1,575.3z"/>
		</g>
	</g>
	<g id="Shape_46_copy_2_3_">
		<g>
			<path class="st12" d="M1142.7,618.2c-4.9,0.5-8.8-1-8.8-1s3.8,3.5,9.1,3.5c6.2,0,9.5-4.6,9.5-4.6S1147.6,617.7,1142.7,618.2z"/>
		</g>
	</g>
	<g id="Shape_48_2_">
		<g>
			<path class="st6" d="M1129.4,603.3c-1.5-0.3-2-2.2-2-2.2s0.4,2.9,2.3,3c1.1,0,2.6-0.5,2.8-1
				C1132.5,603,1131.4,603.7,1129.4,603.3z"/>
		</g>
	</g>
	<g id="Shape_48_copy_2_">
		<g>
			<path class="st6" d="M1150.2,601.3c-1.5-0.2-2.2-2.5-2.2-2.5s0.4,2.9,2.3,3c1.1,0,2.6-0.5,2.8-1
				C1153.1,600.7,1151.7,601.5,1150.2,601.3z"/>
		</g>
	</g>
	<path class="st6" d="M1155.2,651.1c0,0,1.1,1.1,3.4,1.3c0.8,0.1,1.1,0,1.5-0.3c0,0-0.7-0.2-1.1-0.6c-0.9-0.8-1.2-1.7-1.2-1.7
		s0.5,0.5,1.8,1.2c0.7,0.4,1.5,0,1.5,0c0.5-0.5,0.3-0.9,0.3-1.7c0-1.5,0-1.6-0.5-3.3s-3.2,0-5,1.3
		C1154.1,648.6,1153.9,650.2,1155.2,651.1z"/>
	<path class="st13" d="M1163.7,641.8c0,0-1.4,0.7-4.3,0.7c-3,0-3.6-0.5-3.6-0.5s2,0.2,5.6-1s4.6-2.4,4.6-2.4
		S1164.5,641.4,1163.7,641.8z"/>
	<path class="st13" d="M1156.4,633.9c0,0,1,1,3.7,2.3s5.5,1.2,5.5,1.2s-1.8-0.5-4.6-3.3c-2.8-2.8-3.2-3.9-3.2-3.9
		S1155.8,633.2,1156.4,633.9z"/>
	<path class="st13" d="M1167,582.2c0,0-4.2-2-5-2.1c-1.5-0.3-2.6-0.8-3.2-1.1c-0.5-0.2-1.2-0.2-1.7-0.1c-0.3,0.1-0.7,0.2-1,0.4
		c-0.7,0.5-2,1.2-3.9,2.2c-1.8,0.9-2.4,2.5-2.4,2.5s3.9-2.1,7.4-1.3c3.6,0.8-0.3,12.7,2.6,12c1-0.2,2.9-4.4,4.6-3.6
		c3.2,1.6,5.9,6.4,5.9,6.4L1167,582.2z"/>
	<path class="st13" d="M1279.8,550.9c0,0-0.7,0.3-2.2,0s-1.6-0.8-1.6-0.8s0.9,0.4,2.8-0.1s2.5-1.2,2.5-1.2
		S1280.2,550.7,1279.8,550.9z"/>
	<path class="st13" d="M1275.3,546.9c0,0,0.5,0.6,1.8,1.1s4.1-0.1,4.1-0.1s-2.3-0.3-4.3-1.8c-1.9-1.5-2.4-2.3-2.4-2.3
		S1274.9,546.5,1275.3,546.9z"/>
	<g id="Shape_50_3_" class="st14">
		<g>
			<path class="st15" d="M1121,623.5c0,0,2.6-4.2,6-6.5s6.8-3.8,6.8-3.8S1124.6,615.6,1121,623.5z"/>
		</g>
	</g>
	<g id="Shape_50_copy_3_" class="st14">
		<g>
			<path class="st15" d="M1124.2,622.7c0,0,2.4-4.2,4.6-5.6c2.2-1.4,5.9-2.9,5.9-2.9S1127.3,615.3,1124.2,622.7z"/>
		</g>
	</g>
	<g id="Shape_50_copy_2_3_" class="st14">
		<g>
			<path class="st15" d="M1119.6,621.3c0,0,2.7-3.4,6.5-5.6s7.4-3.3,7.4-3.3S1124,613.9,1119.6,621.3z"/>
		</g>
	</g>
	<g id="Shape_50_copy_3_3_" class="st14">
		<g>
			<path class="st15" d="M1127.1,625c0,0,1.2-3.9,3.7-6.1c2.6-2.3,5-3.8,5-3.8S1128.8,617.4,1127.1,625z"/>
		</g>
	</g>
	<g id="Shape_50_copy_4_15_" class="st14">
		<g>
			<path class="st15" d="M1148.9,611c0,0,1.1,0.1,2.8,0.4C1149.5,610.7,1148.9,611,1148.9,611z M1162.9,617.8
				c0.2,0.2,0.3,0.4,0.5,0.6C1163.4,618.4,1163.3,618.2,1162.9,617.8z M1151.7,611.4c1.1,0.4,2.6,1,4.6,2c4.1,2.1,5.8,3.6,6.6,4.3
				C1159.6,613.7,1154.8,612.1,1151.7,611.4z"/>
		</g>
	</g>
	<g id="Shape_50_copy_4_11_" class="st14">
		<g>
			<path class="st15" d="M1148.2,612c0,0,2.1,0.1,5.9,1.9c4,1.9,5.7,3.9,5.9,4.2C1155.6,611.7,1148.2,612,1148.2,612z"/>
		</g>
	</g>
	<g id="Shape_50_copy_4_8_" class="st14">
		<g>
			<path class="st15" d="M1148.9,610.1c0,0,4.4-0.2,9,2c3.9,1.8,6.3,3.9,6.3,3.9C1158.7,609.7,1148.9,610.1,1148.9,610.1z"/>
		</g>
	</g>
	<g id="Shape_50_copy_4_5_" class="st14">
		<g>
			<path class="st15" d="M1147.1,613.2c0,0,2.1,0.4,5.4,2.6s5.1,5.3,5.1,5.3C1154.5,614,1147.1,613.2,1147.1,613.2z"/>
		</g>
	</g>
	<g id="Shape_45_5_">
		<g>
			
				<radialGradient id="SVGID_5_" cx="1185.9944" cy="97.3989" r="27.4921" fx="1163.4862" fy="94.6926" gradientTransform="matrix(0.9842 0.177 0.3359 -1.8676 -66.7984 560.998)" gradientUnits="userSpaceOnUse">
				<stop  offset="0" style="stop-color:#E8DEE0;stop-opacity:0.3"/>
				<stop  offset="1" style="stop-color:#FFFFFF;stop-opacity:0"/>
			</radialGradient>
			<path class="st16" d="M1280.6,545c-6.3-9.3-7.3-4.5-5.4,2.4c0.1,0.5-0.1,2.5-0.8,3.4c-7.1,9.8-27.3,40.2-28.9,40.1
				c-8.4-0.5-40.9-4.2-55.5-3.5c-5.4,0.3-18.6,9.2-18.7,6.5c0.6-8.3-6.4-13.5-6.4-13.5s1.1-1.4,1.7-3c1.2-3.1,2.4-7.5,2.4-7.5
				s-7.2-3.4-16.7,5.4c-9-0.1-16.9-0.5-25.9,5.8c-4-1.1-8-2.4-11.5-2c-2.1,0.3-3-0.3-3-0.3c0.9,0.8,0.8,2.1,1.6,2.8
				c5.3,4.4,8.6,8.4,8.6,8.4s-2.1,2.8,0,11.8c1.7,7.3,8.8,11.3,9.5,12.1c3.7,4.4,5.7,8.7,15.2,7.5c6.1-0.7,15.2-12.9,21.2-3.4
				c0.1,0.1-10.4,10.2-11.7,15.6c-0.6,2.4-2.1,7.4-3,10.8c-2.2,8.5,8,10.6,8.6,6.3c0.8-5.9-2.4-5.8,2-8.9c1.9-1.4,10.7-18,10.8-17.9
				c0.2,0.3,4.5,2.6,12.2,4.9c1.9,0.6,3.4,29.1,5.8,28.9c12-1.1,1.8-25.8,7.9-26.1c11.7-0.6,9.2-3.4,28.3-5.1
				c1-0.1,10.6,26.9,11.5,26.8c0.3,0,6.4,3.1,5.2-2.8c-1.6-7.6-5.7-21.6-5.2-21.7c1.4-0.2-0.2,3,1.2,2.8c1-0.2,11.7,25,12.6,24.8
				c2.8-0.5-2.2-25.1,0.6-25.9c1.2-0.3,0.1-10.9-0.1-26.7c-0.1-5.5-3-11.8-4.3-12.1c-0.5-0.1,30-28.5,31.3-41.6
				C1281.5,549.3,1281.1,545.7,1280.6,545z"/>
		</g>
	</g>
</g>
<g>
	<g>
		<path d="M1176.6,658.1c-3.5,0-6.4-2.9-6.4-6.4v-94.6c0-3.5,2.9-6.4,6.4-6.4h155.1c3.5,0,6.4,2.9,6.4,6.4v94.6
			c0,3.5-2.9,6.4-6.4,6.4H1176.6L1176.6,658.1z"/>
		<path class="st17" d="M1331.7,552.1c2.7,0,4.9,2.2,4.9,4.9v94.6c0,2.7-2.2,4.9-4.9,4.9h-155.1c-2.7,0-4.9-2.2-4.9-4.9V557
			c0-2.7,2.2-4.9,4.9-4.9H1331.7L1331.7,552.1 M1331.7,549.1L1331.7,549.1h-155.1c-4.4,0-7.9,3.6-7.9,7.9v94.6
			c0,4.4,3.6,7.9,7.9,7.9l0,0h155.1c4.4,0,7.9-3.6,7.9-7.9V557C1339.6,552.7,1336.1,549.1,1331.7,549.1L1331.7,549.1z"/>
	</g>
	<g class="st14">
		<rect x="1174.6" y="558.1" class="st18" width="159.6" height="93"/>
	</g>
	<g>
		<ellipse class="st19" cx="1254.1" cy="554.1" rx="2.2" ry="2.3"/>
	</g>
	<g>
		<path class="st20" d="M1259.6,554.8c-0.4,0-0.7-0.3-0.7-0.7s0.3-0.7,0.7-0.7s0.7,0.3,0.7,0.7
			C1260.3,554.5,1260,554.8,1259.6,554.8L1259.6,554.8z"/>
		<path d="M1259.6,553.9c0.1,0,0.2,0.1,0.2,0.2c0,0.1-0.1,0.2-0.2,0.2s-0.2-0.1-0.2-0.2S1259.5,553.9,1259.6,553.9 M1259.6,552.9
			L1259.6,552.9c-0.7,0-1.2,0.5-1.2,1.2s0.5,1.2,1.2,1.2l0,0c0.7,0,1.2-0.5,1.2-1.2C1260.8,553.4,1260.2,552.9,1259.6,552.9
			L1259.6,552.9z"/>
	</g>
	<g>
		<ellipse class="st17" cx="1254.1" cy="554.1" rx="0.8" ry="0.8"/>
	</g>
	<path class="st21" d="M1193.1,573.6L1193.1,573.6c-1.7,0-3-1.4-3-3v-0.2c0-1.7,1.4-3,3-3l0,0c1.7,0,3,1.4,3,3v0.2
		C1196.2,572.2,1194.8,573.6,1193.1,573.6z"/>
	<rect x="1174.6" y="558.1" class="st22" width="159.5" height="3.5"/>
	<path class="st21" d="M1318.3,640.7h-6.7c-1.2,0-2.1-0.9-2.1-2.1l0,0c0-1.2,0.9-2.1,2.1-2.1h6.7c1.2,0,2.1,0.9,2.1,2.1l0,0
		C1320.5,639.8,1319.5,640.7,1318.3,640.7z"/>
	<path class="st21" d="M1198.9,640.7h-6.7c-1.2,0-2.1-0.9-2.1-2.1l0,0c0-1.2,0.9-2.1,2.1-2.1h6.7c1.2,0,2.1,0.9,2.1,2.1l0,0
		C1201,639.8,1200.1,640.7,1198.9,640.7z"/>
	<rect x="1309.5" y="568.3" class="st21" width="10.9" height="4.2"/>
	<g>
		<rect x="1190.1" y="581.9" class="st21" width="130.4" height="51.7"/>
		<rect x="1213.4" y="584.1" class="st23" width="83.8" height="47.2"/>
		<ellipse class="st24" cx="1193.3" cy="585.1" rx="1.3" ry="1.3"/>
	</g>
	<g>
		<ellipse class="st25" cx="1176.5" cy="560.1" rx="0.8" ry="0.7"/>
		<ellipse class="st26" cx="1179.7" cy="560.1" rx="0.8" ry="0.7"/>
		<ellipse class="st27" cx="1182.9" cy="560.1" rx="0.8" ry="0.7"/>
	</g>
	<g class="st28">
		
			<linearGradient id="SVGID_6_" gradientUnits="userSpaceOnUse" x1="1190.8423" y1="126.7808" x2="1317.4011" y2="0.222" gradientTransform="matrix(1 -2.662073e-04 -2.662073e-04 -1 -4.763156e-03 668.0853)">
			<stop  offset="0" style="stop-color:#000000"/>
			<stop  offset="0.1007" style="stop-color:#161616"/>
			<stop  offset="0.2626" style="stop-color:#343434"/>
			<stop  offset="0.4015" style="stop-color:#464646"/>
			<stop  offset="0.5004" style="stop-color:#4D4D4D"/>
			<stop  offset="0.5037" style="stop-color:#4B4B4B"/>
			<stop  offset="0.5049" style="stop-color:#444444"/>
			<stop  offset="0.5057" style="stop-color:#393939"/>
			<stop  offset="0.5064" style="stop-color:#282828"/>
			<stop  offset="0.507" style="stop-color:#121212"/>
			<stop  offset="0.5074" style="stop-color:#000000"/>
			<stop  offset="0.7537" style="stop-color:#1C1C1C"/>
			<stop  offset="1" style="stop-color:#333333"/>
		</linearGradient>
		<rect x="1174.3" y="557.5" class="st29" width="159.6" height="93.5"/>
	</g>
	<g>
		<g>
			<path class="st30" d="M1334.4,665.5h-157.8c-3.6,0-6.5-2.1-6.5-4.8v-2.6c0-1.1,1.2-2,2.7-2h165.5c1.5,0,2.7,0.9,2.7,1.9v2.6
				C1340.9,663.3,1338,665.5,1334.4,665.5z"/>
		</g>
		<g>
			<g>
				<path class="st31" d="M1310.7,665.5h-157.8c-3.6,0-6.5-2.1-6.5-4.8v-2.6c0-1.1,1.2-2,2.7-2h165.5c1.5,0,2.7,0.9,2.7,1.9v2.6
					C1317.2,663.3,1314.3,665.5,1310.7,665.5z"/>
			</g>
			<g>
				<path class="st17" d="M1251.5,660.3H1212c-0.9,0-1.6-1-1.6-2.1V657c0-0.5,0.3-0.9,0.7-0.9h41.4c0.4,0,0.7,0.4,0.7,0.9v1.2
					C1253.1,659.4,1252.4,660.3,1251.5,660.3z"/>
			</g>
		</g>
		<g>
			<g>
				
					<radialGradient id="SVGID_7_" cx="1158.4971" cy="-52.1375" r="116.7187" fx="1156.6976" fy="-52.3558" gradientTransform="matrix(1 -6.393231e-05 2.148571e-05 -0.2553 1.810781e-02 640.6749)" gradientUnits="userSpaceOnUse">
					<stop  offset="0" style="stop-color:#FFFFFF;stop-opacity:0.5"/>
					<stop  offset="0.9313" style="stop-color:#FFFFFF;stop-opacity:3.435552e-02"/>
					<stop  offset="1" style="stop-color:#FFFFFF;stop-opacity:0"/>
				</radialGradient>
				<path class="st32" d="M1310.7,665.5h-157.8c-3.6,0-6.5-2.1-6.5-4.8v-2.6c0-1.1,1.2-2,2.7-2h165.5c1.5,0,2.7,0.9,2.7,1.9v2.6
					C1317.2,663.3,1314.3,665.5,1310.7,665.5z"/>
			</g>
			<g>
				
					<radialGradient id="SVGID_8_" cx="1216.2234" cy="-158.4238" r="39.6183" fx="1215.2677" fy="-158.4067" gradientTransform="matrix(1 -6.393231e-05 1.413761e-05 -0.168 1.893838e-02 630.8139)" gradientUnits="userSpaceOnUse">
					<stop  offset="0" style="stop-color:#000000;stop-opacity:0.45"/>
					<stop  offset="0.7485" style="stop-color:#000000;stop-opacity:0.3569"/>
					<stop  offset="0.8037" style="stop-color:#000000;stop-opacity:0.35"/>
					<stop  offset="0.8339" style="stop-color:#0C0C0C;stop-opacity:0.3346"/>
					<stop  offset="0.8889" style="stop-color:#2D2D2D;stop-opacity:0.3066"/>
					<stop  offset="0.9622" style="stop-color:#626262;stop-opacity:0.2693"/>
					<stop  offset="1" style="stop-color:#808080;stop-opacity:0.25"/>
				</radialGradient>
				<path class="st33" d="M1251.5,660.3H1212c-0.9,0-1.6-1-1.6-2.1V657c0-0.5,0.3-0.9,0.7-0.9h41.4c0.4,0,0.7,0.4,0.7,0.9v1.2
					C1253.1,659.4,1252.4,660.3,1251.5,660.3z"/>
			</g>
		</g>
	</g>
</g>
</svg>
