<?xml version="1.0" encoding="utf-8"?>
<!-- Generator: Adobe Illustrator 25.0.1, SVG Export Plug-In . SVG Version: 6.00 Build 0)  -->
<svg version="1.1" id="Layer_1" xmlns="http://www.w3.org/2000/svg" xmlns:xlink="http://www.w3.org/1999/xlink" x="0px" y="0px"
	 viewBox="0 0 1366 768" style="enable-background:new 0 0 1366 768;" xml:space="preserve">
<style type="text/css">
	.st0{opacity:0.8;}
	.st1{fill-rule:evenodd;clip-rule:evenodd;fill:#D5DDC4;}
	.st2{fill:url(#SVGID_1_);}
	.st3{clip-path:url(#SVGID_3_);fill:url(#SVGID_4_);}
	.st4{clip-path:url(#SVGID_6_);fill:url(#SVGID_7_);}
	.st5{display:none;clip-path:url(#SVGID_9_);fill:url(#SVGID_10_);}
	.st6{clip-path:url(#SVGID_12_);fill:#BDB4B9;}
	.st7{clip-path:url(#SVGID_14_);fill:#E7D9DA;}
	.st8{fill:#666666;}
	.st9{fill:url(#SVGID_15_);}
	.st10{fill:url(#SVGID_16_);}
	.st11{fill:#C7B29E;}
	.st12{opacity:0.3;fill:url(#SVGID_17_);enable-background:new    ;}
</style>
<g id="Layer_21">
	<g>
		<g>
			<g>
				<g id="Shape_50_1_" class="st0">
					<g>
						<path class="st1" d="M263.3,624.4c0,0,5.1,2.5,10.5,6.2s9.3,10.5,9.3,10.5C277.5,628.2,263.3,624.4,263.3,624.4z"/>
					</g>
				</g>
				<g id="Shape_50_copy_1_" class="st0">
					<g>
						<path class="st1" d="M261.9,625.8c0,0,5.8,2.6,9.2,4.8c3.3,2.2,7.1,9,7.1,9C273.3,627.7,261.9,625.8,261.9,625.8z"/>
					</g>
				</g>
				<g id="Shape_50_copy_2_1_" class="st0">
					<g>
						<path class="st1" d="M263.6,622.9c0,0,5.4,1.7,11.4,5.4c6,3.7,10.1,9.1,10.1,9.1C278.5,625.5,263.6,622.9,263.6,622.9z"/>
					</g>
				</g>
				<g id="Shape_50_copy_3_1_" class="st0">
					<g>
						<path class="st1" d="M260,627.3c0,0,3.8,2.5,7.8,6.2s5.8,9.9,5.8,9.9C271,631,260,627.3,260,627.3z"/>
					</g>
				</g>
			</g>
			
				<linearGradient id="SVGID_1_" gradientUnits="userSpaceOnUse" x1="1275.6844" y1="344.5631" x2="1408.1696" y2="344.5631" gradientTransform="matrix(1 0 0 1.0442 -1134.7449 313.2489)">
				<stop  offset="0.1412" style="stop-color:#363538"/>
				<stop  offset="0.9665" style="stop-color:#464646"/>
			</linearGradient>
			<path class="st2" d="M203.5,578.2c0,0-0.3,2.5,1.3,6.3c1.3,3.2,5,4.7,7.6,11.5c-6,13.7-7,24.8-10.8,30.4
				c-3.5,5.1-16,11.9-30.9,26.6c-0.4,0.4-6.1,3-6.8,3.8c0,0,4.4,0.4,2.8,2.2c-0.4,0.4-5,1.6-5.4,2c-0.4,0.5,1.2,0.9,0.9,1.4
				c-0.6,0.6-4.7,1.2-5.1,1.7c-0.3,0.4,3.1,0.7,2.8,1c-0.2,0.4-5.8,3.4-6.1,3.8c0,0,2.1,1.9,0.7,4.2c-0.7,1.3-1.5,2.5-2.2,3.8
				c-2,3.7-3.8,7.5-5.2,11.3c-4.4,11.3-6.4,22.2-6,30c0.4,8,1,14.7,2.7,20.4c0.3,1.1,1.7,8.2,2,9.3c0,0,0.6-3.5,1.1-2.2
				c0.3,0.7,0.6,4.7,1,5.4c0,0,0.8-1.7,1.2-1c8.5,14.7,21.6,17.8,30.1,17.8h33.3c19.9,0.1,23-5.4,23-5.4c3.8-5.3,3.4-17.6,3.4-17.6
				s-0.3,12.9,1.3,16.8c1,2.4,5,5.3,7.4,6.3l10.6-0.1c0,0,0.2-0.1,1.2-0.6c1.1-0.5,1.9-0.2,1.8-6.3c-0.7-2.7-3.3-5.3-10.6-5.9
				c0-1.5-0.2-4.8-0.4-9c-0.1-1.5,2.1-2.5,0.6-3c-0.7-0.2-0.3-3.5-0.6-4.8c-0.3-1.5,0.7-4.1,0.7-4.1c0-0.7-0.9-1.7-1.2-2.7
				c-0.4-1.4-0.4-2.9-0.3-4c0.1-1.7,2-2.4,2-2.4s-1.6-0.9-1.5-2.4c0-0.5,2.1-1.2,2.1-2c0,0-1.9-3.2-1.9-4c0.1-2,0.3-4,0.4-5.8
				c0.1-0.4,1.8-0.6,1.9-1c0.1-0.5-1.7-1.1-1.6-1.5c0.1-0.4,1.9-0.8,2-1.4c0.1-0.5-2-1.4-2-1.9c0.1-0.6,2.6-1.3,2.7-1.8
				c0.1-0.9-1.9-1.2-1.9-1.2l3-2.8l-2.8-3.4l4-5.3c0.1-0.4-3.4-2.2-3.4-2.2c0.3-1,2.5-1.2,2.9-2.5c0.1-0.4-1.5-0.7-1.4-1.2
				c0.1-0.4,2.1-1,2.2-1.4c0.2-0.7-1.2-2.7-0.9-3.5c1.4-4.7,4.8-9.1,6.4-15.2c1.7-6.3-0.8-14.5-2.3-27.5c4.3-6.4,7.4-8.3,8-22.5
				c0.5-10.4-2.4-17.9-2.4-17.9c3.4-9.9,8.7-18.8,8.7-18.8s-13.4,8.1-21.7,8.3c-11.8-2.5-20.5-3.1-31.4-0.1
				C206.7,585.1,203.5,578.2,203.5,578.2z"/>
			<g>
				<g>
					<g>
						<defs>
							<path id="SVGID_2_" d="M203.5,578.2c0,0-0.3,2.5,1.3,6.3c1.3,3.2,5,4.7,7.6,11.5c-6,13.7-7,24.8-10.8,30.4
								c-3.5,5.1-16,11.9-30.9,26.6c-0.4,0.4-6.1,3-6.8,3.8c0,0,4.4,0.4,2.8,2.2c-0.4,0.4-5,1.6-5.4,2c-0.4,0.5,1.2,0.9,0.9,1.4
								c-0.6,0.6-4.7,1.2-5.1,1.7c-0.3,0.4,3.1,0.7,2.8,1c-0.2,0.4-5.8,3.4-6.1,3.8c0,0,2.1,1.9,0.7,4.2c-0.7,1.3-1.5,2.5-2.2,3.8
								c-2,3.7-3.8,7.5-5.2,11.3c-4.4,11.3-6.4,22.2-6,30c0.4,8,1,14.7,2.7,20.4c0.3,1.1,1.7,8.2,2,9.3c0,0,0.6-3.5,1.1-2.2
								c0.3,0.7,0.6,4.7,1,5.4c0,0,0.8-1.7,1.2-1c8.5,14.7,21.6,17.8,30.1,17.8h33.3c19.9,0.1,23-5.4,23-5.4
								c3.8-5.3,3.4-17.6,3.4-17.6s-0.3,12.9,1.3,16.8c1,2.4,5,5.3,7.4,6.3l10.6-0.1c0,0,0.2-0.1,1.2-0.6c1.1-0.5,1.9-0.2,1.8-6.3
								c-0.7-2.7-3.3-5.3-10.6-5.9c0-1.5-0.2-4.8-0.4-9c-0.1-1.5,2.1-2.5,0.6-3c-0.7-0.2-0.3-3.5-0.6-4.8c-0.3-1.5,0.7-4.1,0.7-4.1
								c0-0.7-0.9-1.7-1.2-2.7c-0.4-1.4-0.4-2.9-0.3-4c0.1-1.7,2-2.4,2-2.4s-1.6-0.9-1.5-2.4c0-0.5,2.1-1.2,2.1-2c0,0-1.9-3.2-1.9-4
								c0.1-2,0.3-4,0.4-5.8c0.1-0.4,1.8-0.6,1.9-1c0.1-0.5-1.7-1.1-1.6-1.5c0.1-0.4,1.9-0.8,2-1.4c0.1-0.5-2-1.4-2-1.9
								c0.1-0.6,2.6-1.3,2.7-1.8c0.1-0.9-1.9-1.2-1.9-1.2l3-2.8l-2.8-3.4l4-5.3c0.1-0.4-3.4-2.2-3.4-2.2c0.3-1,2.5-1.2,2.9-2.5
								c0.1-0.4-1.5-0.7-1.4-1.2c0.1-0.4,2.1-1,2.2-1.4c0.2-0.7-1.2-2.7-0.9-3.5c1.4-4.7,4.8-9.1,6.4-15.2
								c1.7-6.3-0.8-14.5-2.3-27.5c4.3-6.4,7.4-8.3,8-22.5c0.5-10.4-2.4-17.9-2.4-17.9c3.4-9.9,8.7-18.8,8.7-18.8
								s-13.4,8.1-21.7,8.3c-11.8-2.5-20.5-3.1-31.4-0.1C206.7,585.1,203.5,578.2,203.5,578.2z"/>
						</defs>
						<clipPath id="SVGID_3_">
							<use xlink:href="#SVGID_2_"  style="overflow:visible;"/>
						</clipPath>
						
							<linearGradient id="SVGID_4_" gradientUnits="userSpaceOnUse" x1="1251.5728" y1="403.9008" x2="1396.3287" y2="403.9008" gradientTransform="matrix(1 0 0 1 -1134.7449 287.6366)">
							<stop  offset="0.1738" style="stop-color:#1A1A1A"/>
							<stop  offset="0.7802" style="stop-color:#333333"/>
						</linearGradient>
						<path class="st3" d="M170.3,647.8l7.1-10.1c0.5,0.2,10.1,0,10.1,0s-2.9,6.3-3.7,8c-0.8,1.6,8.4-9.1,8.4-9.1s-3,5.4-2.8,5.5
							c0.2,0.1,8.2-7.9,8.2-7.9s-4.3,7.1-4.1,6.9c2.1-2,4.4-5.3,5.5-6.4c0,0-0.4,1.1,0,3c0.2,0.1,1.9-3.7,2.1-3.7
							c0.2,0.1-2.5-3.8-1.8-3.2c0.4,0.3,2.7-0.2,3.1-1.2c0.4-0.9-1.3-2.1-0.9-3c2.7-5.8,4.3-13.1,5.6-13c0,0,3.6,3.3,7.1-1.1
							c0.4-0.5,1.2,4.2,1.9,4.1c1.9-0.1,4-4.3,6.1-4.1c0.5,0-2.1,6.6-1.6,6.7c0.6,0,4.5-6.3,5.1-6.3c2.2,0.1,3.8,1.7,5.3,1.7
							c9.8-0.2,4.8,3.5,10.3,6c5.4,2.5,10,6.1,10,6.1l-22.8-6.4c0.1,1.7,19.4,8.7,21.3,12.4c0.7,1.4-16.2-9.8-23.9-5.4
							c20.2,13.7,24.4,27.2,24.3,27.8c-0.1,1.2-8.8-14.4-28.6-18.6c24.4,14.1,35.5,36.4,35.4,38.1c0,0-5.7-5.1-12.3-8.5
							c-9.2-4.8-20-8.1-19-6.6c2,3,29.8,19.1,28.9,23.9c-0.7,3.5-11.7,7.1-12.6,10.5c0,0,9.3,1.4,9.6,4.1c0.4,4.1-9.7,46.8-6.9,60.2
							c1.1,5.7,17.5,8,17,9c-1.6,3.2-24,2-47.8,2c-11,0-35.4-0.1-35.4-0.1c-10.8-0.5-59.6,3.2-61.4,0.2
							c-1.9-2.9,17.4-94.9,17.4-94.9S163.4,646.1,170.3,647.8z"/>
					</g>
				</g>
				<g>
					<g>
						<defs>
							<path id="SVGID_5_" d="M203.5,578.2c0,0-0.3,2.5,1.3,6.3c1.3,3.2,5,4.7,7.6,11.5c-6,13.7-7,24.8-10.8,30.4
								c-3.5,5.1-16,11.9-30.9,26.6c-0.4,0.4-6.1,3-6.8,3.8c0,0,4.4,0.4,2.8,2.2c-0.4,0.4-5,1.6-5.4,2c-0.4,0.5,1.2,0.9,0.9,1.4
								c-0.6,0.6-4.7,1.2-5.1,1.7c-0.3,0.4,3.1,0.7,2.8,1c-0.2,0.4-5.8,3.4-6.1,3.8c0,0,2.1,1.9,0.7,4.2c-0.7,1.3-1.5,2.5-2.2,3.8
								c-2,3.7-3.8,7.5-5.2,11.3c-4.4,11.3-6.4,22.2-6,30c0.4,8,1,14.7,2.7,20.4c0.3,1.1,1.7,8.2,2,9.3c0,0,0.6-3.5,1.1-2.2
								c0.3,0.7,0.6,4.7,1,5.4c0,0,0.8-1.7,1.2-1c8.5,14.7,21.6,17.8,30.1,17.8h33.3c19.9,0.1,23-5.4,23-5.4
								c3.8-5.3,3.4-17.6,3.4-17.6s-0.3,12.9,1.3,16.8c1,2.4,5,5.3,7.4,6.3l10.6-0.1c0,0,0.2-0.1,1.2-0.6c1.1-0.5,1.9-0.2,1.8-6.3
								c-0.7-2.7-3.3-5.3-10.6-5.9c0-1.5-0.2-4.8-0.4-9c-0.1-1.5,2.1-2.5,0.6-3c-0.7-0.2-0.3-3.5-0.6-4.8c-0.3-1.5,0.7-4.1,0.7-4.1
								c0-0.7-0.9-1.7-1.2-2.7c-0.4-1.4-0.4-2.9-0.3-4c0.1-1.7,2-2.4,2-2.4s-1.6-0.9-1.5-2.4c0-0.5,2.1-1.2,2.1-2c0,0-1.9-3.2-1.9-4
								c0.1-2,0.3-4,0.4-5.8c0.1-0.4,1.8-0.6,1.9-1c0.1-0.5-1.7-1.1-1.6-1.5c0.1-0.4,1.9-0.8,2-1.4c0.1-0.5-2-1.4-2-1.9
								c0.1-0.6,2.6-1.3,2.7-1.8c0.1-0.9-1.9-1.2-1.9-1.2l3-2.8l-2.8-3.4l4-5.3c0.1-0.4-3.4-2.2-3.4-2.2c0.3-1,2.5-1.2,2.9-2.5
								c0.1-0.4-1.5-0.7-1.4-1.2c0.1-0.4,2.1-1,2.2-1.4c0.2-0.7-1.2-2.7-0.9-3.5c1.4-4.7,4.8-9.1,6.4-15.2
								c1.7-6.3-0.8-14.5-2.3-27.5c4.3-6.4,7.4-8.3,8-22.5c0.5-10.4-2.4-17.9-2.4-17.9c3.4-9.9,8.7-18.8,8.7-18.8
								s-13.4,8.1-21.7,8.3c-11.8-2.5-20.5-3.1-31.4-0.1C206.7,585.1,203.5,578.2,203.5,578.2z"/>
						</defs>
						<clipPath id="SVGID_6_">
							<use xlink:href="#SVGID_5_"  style="overflow:visible;"/>
						</clipPath>
						
							<linearGradient id="SVGID_7_" gradientUnits="userSpaceOnUse" x1="1345.1649" y1="311.4177" x2="1392.8655" y2="311.4177" gradientTransform="matrix(1 0 0 1 -1134.7449 287.6366)">
							<stop  offset="0.1738" style="stop-color:#1A1A1A"/>
							<stop  offset="0.7802" style="stop-color:#333333"/>
						</linearGradient>
						<path class="st4" d="M236.2,584.5c-8.8-0.3-15.9,2-15.9,2s-8.4,4.1-4.6,9.5c0.7-0.5,6.2-3.2,7.5-3.5
							c2.8-0.7,11.9-1.2,11.8,0.1c0,0-9.7,1.8-11.9,1.9c-2.7,0.1-1.7,0.9-5.1,3.3c-3,2.1-3.3,0.8-6.7,4.5c-2.4,2.7,1,6.3,7.2,4.5
							c6.2-1.8,7.2-1.8,8.1-1.7c3.3,0.2-2.4,5.9-1.3,6.1c2,0.3,7.8-4.9,9.8-4.6c1.4,0.2-0.9,6.1,0.4,6.3c2.4,0.3,4.6-4.6,6.4-4.8
							c2.1-0.2,17.5,6.6,16.3,5.4c-2.4-2.5-1.6-10.4-0.7-15.3c-1,0.1-6.4,0-8.8,0.1c-4.4,0.2-5.3-2.7-5.3-2.7
							c1.2,0.7,1.4,0.9,3.1,1.2c1.6,0.2,10.6-0.9,10.6-0.9c0.7-4.5-5.2-9.4-5.2-9.4S243.7,584.8,236.2,584.5z"/>
					</g>
				</g>
				<g>
					<g>
						<defs>
							<path id="SVGID_8_" d="M203.5,578.2c0,0-0.3,2.5,1.3,6.3c1.3,3.2,5,4.7,7.6,11.5c-6,13.7-7,24.8-10.8,30.4
								c-3.5,5.1-16,11.9-30.9,26.6c-0.4,0.4-6.1,3-6.8,3.8c0,0,4.4,0.4,2.8,2.2c-0.4,0.4-5,1.6-5.4,2c-0.4,0.5,1.2,0.9,0.9,1.4
								c-0.6,0.6-4.7,1.2-5.1,1.7c-0.3,0.4,3.1,0.7,2.8,1c-0.2,0.4-5.8,3.4-6.1,3.8c0,0,2.1,1.9,0.7,4.2c-0.7,1.3-1.5,2.5-2.2,3.8
								c-2,3.7-3.8,7.5-5.2,11.3c-4.4,11.3-6.4,22.2-6,30c0.4,8,1,14.7,2.7,20.4c0.3,1.1,1.7,8.2,2,9.3c0,0,0.6-3.5,1.1-2.2
								c0.3,0.7,0.6,4.7,1,5.4c0,0,0.8-1.7,1.2-1c8.5,14.7,21.6,17.8,30.1,17.8h33.3c19.9,0.1,23-5.4,23-5.4
								c3.8-5.3,3.4-17.6,3.4-17.6s-0.3,12.9,1.3,16.8c1,2.4,5,5.3,7.4,6.3l10.6-0.1c0,0,0.2-0.1,1.2-0.6c1.1-0.5,1.9-0.2,1.8-6.3
								c-0.7-2.7-3.3-5.3-10.6-5.9c0-1.5-0.2-4.8-0.4-9c-0.1-1.5,2.1-2.5,0.6-3c-0.7-0.2-0.3-3.5-0.6-4.8c-0.3-1.5,0.7-4.1,0.7-4.1
								c0-0.7-0.9-1.7-1.2-2.7c-0.4-1.4-0.4-2.9-0.3-4c0.1-1.7,2-2.4,2-2.4s-1.6-0.9-1.5-2.4c0-0.5,2.1-1.2,2.1-2c0,0-1.9-3.2-1.9-4
								c0.1-2,0.3-4,0.4-5.8c0.1-0.4,1.8-0.6,1.9-1c0.1-0.5-1.7-1.1-1.6-1.5c0.1-0.4,1.9-0.8,2-1.4c0.1-0.5-2-1.4-2-1.9
								c0.1-0.6,2.6-1.3,2.7-1.8c0.1-0.9-1.9-1.2-1.9-1.2l3-2.8l-2.8-3.4l4-5.3c0.1-0.4-3.4-2.2-3.4-2.2c0.3-1,2.5-1.2,2.9-2.5
								c0.1-0.4-1.5-0.7-1.4-1.2c0.1-0.4,2.1-1,2.2-1.4c0.2-0.7-1.2-2.7-0.9-3.5c1.4-4.7,4.8-9.1,6.4-15.2
								c1.7-6.3-0.8-14.5-2.3-27.5c4.3-6.4,7.4-8.3,8-22.5c0.5-10.4-2.4-17.9-2.4-17.9c3.4-9.9,8.7-18.8,8.7-18.8
								s-13.4,8.1-21.7,8.3c-11.8-2.5-20.5-3.1-31.4-0.1C206.7,585.1,203.5,578.2,203.5,578.2z"/>
						</defs>
						<clipPath id="SVGID_9_">
							<use xlink:href="#SVGID_8_"  style="overflow:visible;"/>
						</clipPath>
						
							<linearGradient id="SVGID_10_" gradientUnits="userSpaceOnUse" x1="1378.8314" y1="329.1848" x2="1399.2788" y2="289.0605" gradientTransform="matrix(1 0 0 1 -1134.7449 287.6366)">
							<stop  offset="0" style="stop-color:#26281E;stop-opacity:0"/>
							<stop  offset="1" style="stop-color:#000000"/>
						</linearGradient>
						<path class="st5" d="M272.6,573.5c0,0,6.4,17.1,7.4,23.7c2.1,14.4,1.4,38.9,1.9,48.9c0.4,10.1-48.1-26.1-55-32.2
							c-4.4-5.1-33.6-9.8-21.7-23.9C215.3,578.1,272.6,573.5,272.6,573.5z"/>
					</g>
				</g>
				<g>
					<g>
						<defs>
							<path id="SVGID_11_" d="M203.5,578.2c0,0-0.3,2.5,1.3,6.3c1.3,3.2,5,4.7,7.6,11.5c-6,13.7-7,24.8-10.8,30.4
								c-3.5,5.1-16,11.9-30.9,26.6c-0.4,0.4-6.1,3-6.8,3.8c0,0,4.4,0.4,2.8,2.2c-0.4,0.4-5,1.6-5.4,2c-0.4,0.5,1.2,0.9,0.9,1.4
								c-0.6,0.6-4.7,1.2-5.1,1.7c-0.3,0.4,3.1,0.7,2.8,1c-0.2,0.4-5.8,3.4-6.1,3.8c0,0,2.1,1.9,0.7,4.2c-0.7,1.3-1.5,2.5-2.2,3.8
								c-2,3.7-3.8,7.5-5.2,11.3c-4.4,11.3-6.4,22.2-6,30c0.4,8,1,14.7,2.7,20.4c0.3,1.1,1.7,8.2,2,9.3c0,0,0.6-3.5,1.1-2.2
								c0.3,0.7,0.6,4.7,1,5.4c0,0,0.8-1.7,1.2-1c8.5,14.7,21.6,17.8,30.1,17.8h33.3c19.9,0.1,23-5.4,23-5.4
								c3.8-5.3,3.4-17.6,3.4-17.6s-0.3,12.9,1.3,16.8c1,2.4,5,5.3,7.4,6.3l10.6-0.1c0,0,0.2-0.1,1.2-0.6c1.1-0.5,1.9-0.2,1.8-6.3
								c-0.7-2.7-3.3-5.3-10.6-5.9c0-1.5-0.2-4.8-0.4-9c-0.1-1.5,2.1-2.5,0.6-3c-0.7-0.2-0.3-3.5-0.6-4.8c-0.3-1.5,0.7-4.1,0.7-4.1
								c0-0.7-0.9-1.7-1.2-2.7c-0.4-1.4-0.4-2.9-0.3-4c0.1-1.7,2-2.4,2-2.4s-1.6-0.9-1.5-2.4c0-0.5,2.1-1.2,2.1-2c0,0-1.9-3.2-1.9-4
								c0.1-2,0.3-4,0.4-5.8c0.1-0.4,1.8-0.6,1.9-1c0.1-0.5-1.7-1.1-1.6-1.5c0.1-0.4,1.9-0.8,2-1.4c0.1-0.5-2-1.4-2-1.9
								c0.1-0.6,2.6-1.3,2.7-1.8c0.1-0.9-1.9-1.2-1.9-1.2l3-2.8l-2.8-3.4l4-5.3c0.1-0.4-3.4-2.2-3.4-2.2c0.3-1,2.5-1.2,2.9-2.5
								c0.1-0.4-1.5-0.7-1.4-1.2c0.1-0.4,2.1-1,2.2-1.4c0.2-0.7-1.2-2.7-0.9-3.5c1.4-4.7,4.8-9.1,6.4-15.2
								c1.7-6.3-0.8-14.5-2.3-27.5c4.3-6.4,7.4-8.3,8-22.5c0.5-10.4-2.4-17.9-2.4-17.9c3.4-9.9,8.7-18.8,8.7-18.8
								s-13.4,8.1-21.7,8.3c-11.8-2.5-20.5-3.1-31.4-0.1C206.7,585.1,203.5,578.2,203.5,578.2z"/>
						</defs>
						<clipPath id="SVGID_12_">
							<use xlink:href="#SVGID_11_"  style="overflow:visible;"/>
						</clipPath>
						<path class="st6" d="M259,637.6c7.4,3,1.8,96.2-5.3,113.2c-1.3,3.1-2.4,4.3-3.2,4.5c-2.3,0.6-2.4-9.8-2.5-22.5
							c0-1.8,0.4-8.8,1.2-18.6c0.1-0.8-2.6-2.8-2.5-3.7c0.1-0.8,3.8-1.5,3.9-2.4c0.1-0.7-2.4-2.5-2-3.6c0.2-0.9,2.5-1.7,2.6-2.2
							c0.1-1.5-2.5-2.5-2.4-4c0.1-0.9,2.5-1.4,2.2-2.8c-0.2-1.4-1.2-2.9-1.1-3.7c0.2-1.3,1.6-0.7,1.8-1.8c0.2-1.8-1.4-3.1-1.1-4.1
							c0.6-2.2,3.6-0.6,4-2.7c0.1-0.7-4.6-5.7-4.6-5.7s6.9-2.2,7-3l-4-5c0.1-1.1,4-1.5,4.1-2.6c0.1-1.3-2.7-5.4-2.7-6.6
							c0.1-3,2.4-2,2.5-4.4c0-0.6-2.2-2.4-2.2-3c0-1.2,2.2-1.7,1.9-3c-1.9-8.4-3.5-18.4-4.1-19.2c0,0,3.6,2.7,4.5,3.3
							C257.9,634.7,259,637.6,259,637.6z"/>
					</g>
				</g>
				<g>
					<g>
						<defs>
							<path id="SVGID_13_" d="M203.5,578.2c0,0-0.3,2.5,1.3,6.3c1.3,3.2,5,4.7,7.6,11.5c-6,13.7-7,24.8-10.8,30.4
								c-3.5,5.1-16,11.9-30.9,26.6c-0.4,0.4-6.1,3-6.8,3.8c0,0,4.4,0.4,2.8,2.2c-0.4,0.4-5,1.6-5.4,2c-0.4,0.5,1.2,0.9,0.9,1.4
								c-0.6,0.6-4.7,1.2-5.1,1.7c-0.3,0.4,3.1,0.7,2.8,1c-0.2,0.4-5.8,3.4-6.1,3.8c0,0,2.1,1.9,0.7,4.2c-0.7,1.3-1.5,2.5-2.2,3.8
								c-2,3.7-3.8,7.5-5.2,11.3c-4.4,11.3-6.4,22.2-6,30c0.4,8,1,14.7,2.7,20.4c0.3,1.1,1.7,8.2,2,9.3c0,0,0.6-3.5,1.1-2.2
								c0.3,0.7,0.6,4.7,1,5.4c0,0,0.8-1.7,1.2-1c8.5,14.7,21.6,17.8,30.1,17.8h33.3c19.9,0.1,23-5.4,23-5.4
								c3.8-5.3,3.4-17.6,3.4-17.6s-0.3,12.9,1.3,16.8c1,2.4,5,5.3,7.4,6.3l10.6-0.1c0,0,0.2-0.1,1.2-0.6c1.1-0.5,1.9-0.2,1.8-6.3
								c-0.7-2.7-3.3-5.3-10.6-5.9c0-1.5-0.2-4.8-0.4-9c-0.1-1.5,2.1-2.5,0.6-3c-0.7-0.2-0.3-3.5-0.6-4.8c-0.3-1.5,0.7-4.1,0.7-4.1
								c0-0.7-0.9-1.7-1.2-2.7c-0.4-1.4-0.4-2.9-0.3-4c0.1-1.7,2-2.4,2-2.4s-1.6-0.9-1.5-2.4c0-0.5,2.1-1.2,2.1-2c0,0-1.9-3.2-1.9-4
								c0.1-2,0.3-4,0.4-5.8c0.1-0.4,1.8-0.6,1.9-1c0.1-0.5-1.7-1.1-1.6-1.5c0.1-0.4,1.9-0.8,2-1.4c0.1-0.5-2-1.4-2-1.9
								c0.1-0.6,2.6-1.3,2.7-1.8c0.1-0.9-1.9-1.2-1.9-1.2l3-2.8l-2.8-3.4l4-5.3c0.1-0.4-3.4-2.2-3.4-2.2c0.3-1,2.5-1.2,2.9-2.5
								c0.1-0.4-1.5-0.7-1.4-1.2c0.1-0.4,2.1-1,2.2-1.4c0.2-0.7-1.2-2.7-0.9-3.5c1.4-4.7,4.8-9.1,6.4-15.2
								c1.7-6.3-0.8-14.5-2.3-27.5c4.3-6.4,7.4-8.3,8-22.5c0.5-10.4-2.4-17.9-2.4-17.9c3.4-9.9,8.7-18.8,8.7-18.8
								s-13.4,8.1-21.7,8.3c-11.8-2.5-20.5-3.1-31.4-0.1C206.7,585.1,203.5,578.2,203.5,578.2z"/>
						</defs>
						<clipPath id="SVGID_14_">
							<use xlink:href="#SVGID_13_"  style="overflow:visible;"/>
						</clipPath>
						<path class="st7" d="M273.3,578.2c0,0,5.3,14.2,6.1,19.7c1.7,11.9,1.2,32.3,1.5,40.7c0.4,8.5-15.4,14.5-18.7,14.5
							c-3.8,0-6.9-4.5-7.7-11.3c-0.3-2.6-5.6-15.1-5.6-15.1c5.6,3.5,9.8,9.8,13,4.1C268.8,618.6,273.3,578.2,273.3,578.2z"/>
					</g>
				</g>
			</g>
			<path class="st8" d="M211.9,590.8c-4.3-5.6-8.5-7.6-8.5-12.6c-0.1,3.3,0.4,6.1,1.3,8.5c0.2,0.5-2.3,1.3-2.1,1.7
				c0.2,0.4,3,0.5,3.3,0.9c0.1,0.2-1.5,0.7-1.4,0.8c0.1,0.2,3.9,0.2,4.1,0.4c0.2,0.2-2.4,1.7-2.2,1.9c0.1,0.1,1.7,0.1,1.8,0.2
				c0.1,0.2-1.1,0.9-0.9,1c0.1,0.1,2.8-0.2,3,0c0.1,0.1-0.7,0.6-0.6,0.6c1.1,1.1,2.7,1.7,2.7,1.7S212.9,593.1,211.9,590.8z"/>
			
				<linearGradient id="SVGID_15_" gradientUnits="userSpaceOnUse" x1="1303.098" y1="382.7943" x2="1380.5697" y2="429.2775" gradientTransform="matrix(1 0 0 1 -1134.7449 287.6366)">
				<stop  offset="0.3121" style="stop-color:#333333"/>
				<stop  offset="1" style="stop-color:#424142"/>
			</linearGradient>
			<path class="st9" d="M210,671c8.4,6.1,25.2,49.9,28,65.9c0,0-10.8-22.6-22.2-43.1c-5.9-10.5-4.6-10.5-18.3-20.7
				c-1.1-0.8-1.2-3.3-3.1-4.1c-0.8-0.3-3.6,1.4-4.1,0.9c-0.4-0.4,1.3-2.7,0.9-2.9c-0.7-0.5-4.1,1.1-4.2,0.9c0,0,2.2-3.2,1.5-3.7
				c-0.4-0.2-4.1,2.7-4.5,2.5c-0.3-0.2,1-2.5,0.7-2.7c-5.4-3.6-8.4-5.1-8.4-5.1C190.3,658.8,201.5,664.9,210,671z"/>
			
				<linearGradient id="SVGID_16_" gradientUnits="userSpaceOnUse" x1="1296.9418" y1="393.0547" x2="1374.4137" y2="439.5378" gradientTransform="matrix(1 0 0 1 -1134.7449 287.6366)">
				<stop  offset="0.3121" style="stop-color:#333333"/>
				<stop  offset="1" style="stop-color:#424142"/>
			</linearGradient>
			<path class="st10" d="M198.1,687.1c9.7,3.8,33.8,40.3,40.6,55.1c0,0-21.4-32.6-38.8-46.5c-6.3-5.1-13.7-9.8-19.7-13.3
				c-0.7-0.4-3.5,1.2-4.2,0.7c-0.6-0.3,1.7-5,1.2-5.3c-0.6-0.3-6.1,2.6-6,2c0.4-3.7-2.8-4-2.8-4
				C181.9,672.2,188.4,683.2,198.1,687.1z"/>
			<path class="st8" d="M236.7,659.8c3.7,0.2,16.2,10.4,20.2,14.9c0,0-11.1-7.5-18.6-10.5c-5.7-2.3-12.7-5-12.7-5
				C229.5,656.4,233,659.5,236.7,659.8z"/>
			<path class="st8" d="M233.9,677.9c2.7-2.1,17.6-2.8,23.1-2.2c0,0-12.4,1.7-19.4,4.2c-5.4,2-11.9,4.5-11.9,4.5
				C226.9,679.9,231.2,680,233.9,677.9z"/>
			<path class="st8" d="M244.7,633.2c3.7,1.5,10.8,14,13.7,20.4c0,0-4-3.5-11-9.2c-5.3-4.3-14.2-15.4-14.2-15.4
				C238.2,627.1,241,631.7,244.7,633.2z"/>
			<path class="st11" d="M264.6,597.1c0,0,1.9,4.1,2.4,11.5c0.2,5.1-0.2,11.5-0.4,11.7c-0.4,0.3-0.7-7.7-1.5-13.1
				c-0.8-5.4-2.8-6.8-3-11.1c-0.1-1.8,2.6-1.1,3.2-1.7c-0.2-0.8,0.1-2.7,0.4-3.4c1.9-5.7,7.5-12.6,7.5-12.6s-0.3,1.9-0.7,4.1
				c-0.1,0.2,0.8,0.7,0.7,0.9c-0.1,0.2-1.2-0.3-1.9,0.7c0.7,0.4,0.7,0.6,2.1,0.6c-0.2,0.2-1.6,0.6-3,1.4c-0.8,0.4-0.1,2.1,1.9,2.5
				c0.4,0.1-3.8,0.7-4,1.1c-0.2,0.4,2.7,1,3.1,1.4c0.3,0.3-4.1,0.8-4.3,1.2c-0.2,0.4,1.6,0.6,2.9,0.9c0.1,0.4-1.7,0.7-2.7,1.4
				C266.9,595.5,266,596.3,264.6,597.1z"/>
		</g>
		
			<radialGradient id="SVGID_17_" cx="1425.4351" cy="655.5238" r="99.2229" fx="1416.7263" fy="675.9793" gradientTransform="matrix(0.9574 0.3014 -0.4398 1.5231 -892.9121 -708.8361)" gradientUnits="userSpaceOnUse">
			<stop  offset="0.2639" style="stop-color:#2C1F33"/>
			<stop  offset="0.5786" style="stop-color:#493B52;stop-opacity:0.9009"/>
			<stop  offset="0.9942" style="stop-color:#746581;stop-opacity:0.77"/>
		</radialGradient>
		<path class="st12" d="M203.5,578.2c0,0-0.3,2.5,1.3,6.3c1.3,3.2,5,4.7,7.6,11.5c-6,13.7-7,24.8-10.8,30.4
			c-3.5,5.1-16,11.9-30.9,26.6c-0.4,0.4-6.1,3-6.8,3.8c0,0,4.4,0.4,2.8,2.2c-0.4,0.4-5,1.6-5.4,2c-0.4,0.5,1.2,0.9,0.9,1.4
			c-0.6,0.6-4.7,1.2-5.1,1.7c-0.3,0.4,3.1,0.7,2.8,1c-0.2,0.4-5.8,3.4-6.1,3.8c0,0,2.1,1.9,0.7,4.2c-0.7,1.3-1.5,2.5-2.2,3.8
			c-2,3.7-3.8,7.5-5.2,11.3c-4.4,11.3-6.4,22.2-6,30c0.4,8,1,14.7,2.7,20.4c0.3,1.1,1.7,8.2,2,9.3c0,0,0.6-3.5,1.1-2.2
			c0.3,0.7,0.6,4.7,1,5.4c0,0,0.8-1.7,1.2-1c8.5,14.7,21.6,17.8,30.1,17.8h33.3c19.9,0.1,23-5.4,23-5.4c3.8-5.3,3.4-17.6,3.4-17.6
			s-0.3,12.9,1.3,16.8c1,2.4,5,5.3,7.4,6.3l10.6-0.1c0,0,0.2-0.1,1.2-0.6c1.1-0.5,1.9-0.2,1.8-6.3c-0.7-2.7-3.3-5.3-10.6-5.9
			c0-1.5-0.2-4.8-0.4-9c-0.1-1.5,2.1-2.5,0.6-3c-0.7-0.2-0.3-3.5-0.6-4.8c-0.3-1.5,0.7-4.1,0.7-4.1c0-0.7-0.9-1.7-1.2-2.7
			c-0.4-1.4-0.4-2.9-0.3-4c0.1-1.7,2-2.4,2-2.4s-1.6-0.9-1.5-2.4c0-0.5,2.1-1.2,2.1-2c0,0-1.9-3.2-1.9-4c0.1-2,0.3-4,0.4-5.8
			c0.1-0.4,1.8-0.6,1.9-1c0.1-0.5-1.7-1.1-1.6-1.5c0.1-0.4,1.9-0.8,2-1.4c0.1-0.5-2-1.4-2-1.9c0.1-0.6,2.6-1.3,2.7-1.8
			c0.1-0.9-1.9-1.2-1.9-1.2l3-2.8l-2.8-3.4l4-5.3c0.1-0.4-3.4-2.2-3.4-2.2c0.3-1,2.5-1.2,2.9-2.5c0.1-0.4-1.5-0.7-1.4-1.2
			c0.1-0.4,2.1-1,2.2-1.4c0.2-0.7-1.2-2.7-0.9-3.5c1.4-4.7,4.8-9.1,6.4-15.2c1.7-6.3-0.8-14.5-2.3-27.5c4.3-6.4,7.4-8.3,8-22.5
			c0.5-10.4-2.4-17.9-2.4-17.9c3.4-9.9,8.7-18.8,8.7-18.8s-13.4,8.1-21.7,8.3c-11.8-2.5-20.5-3.1-31.4-0.1
			C206.7,585.1,203.5,578.2,203.5,578.2z"/>
	</g>
</g>
</svg>
