<?xml version="1.0" encoding="utf-8"?>
<!-- Generator: Adobe Illustrator 25.0.1, SVG Export Plug-In . SVG Version: 6.00 Build 0)  -->
<svg version="1.1" id="Layer_1" xmlns="http://www.w3.org/2000/svg" xmlns:xlink="http://www.w3.org/1999/xlink" x="0px" y="0px"
	 viewBox="0 0 1366 714" style="enable-background:new 0 0 1366 714;" xml:space="preserve">
<style type="text/css">
	.st0{fill-rule:evenodd;clip-rule:evenodd;fill:url(#SVGID_1_);}
	.st1{fill-rule:evenodd;clip-rule:evenodd;fill:#464646;}
	.st2{fill-rule:evenodd;clip-rule:evenodd;fill:#888C89;}
	.st3{fill-rule:evenodd;clip-rule:evenodd;fill:#737373;}
	.st4{fill-rule:evenodd;clip-rule:evenodd;fill:#1A1A1A;}
	.st5{fill-rule:evenodd;clip-rule:evenodd;fill:#B8A779;}
	.st6{opacity:0.3608;}
	.st7{fill-rule:evenodd;clip-rule:evenodd;fill:#3E3E3E;}
	.st8{fill-rule:evenodd;clip-rule:evenodd;fill:#CCCCCC;}
	.st9{fill-rule:evenodd;clip-rule:evenodd;fill:#333333;}
	.st10{opacity:0.5;}
	.st11{fill-rule:evenodd;clip-rule:evenodd;fill:#999999;}
	.st12{fill-rule:evenodd;clip-rule:evenodd;fill:url(#SVGID_2_);}
	.st13{fill:#333333;}
	.st14{fill:#CCB092;}
	.st15{fill:#1A1A1A;}
	.st16{fill:#34F762;}
	.st17{fill:#1B1464;}
	.st18{opacity:0.5;fill:#999999;enable-background:new    ;}
	.st19{fill:#1B1425;}
	.st20{fill:#FF0000;}
	.st21{fill:#42210B;stroke:#FF0000;stroke-miterlimit:10;}
	.st22{fill:#F7931E;stroke:#F7931E;stroke-miterlimit:10;}
	.st23{fill:#7AC943;stroke:#7AC943;stroke-miterlimit:10;}
	.st24{opacity:0.55;}
	.st25{fill:url(#SVGID_3_);}
	.st26{fill:#3F3E41;}
	.st27{fill:#666666;}
	.st28{fill:url(#SVGID_4_);}
	.st29{fill:url(#SVGID_5_);}
	.st30{fill:url(#SVGID_6_);}
	.st31{fill:url(#SVGID_7_);}
	.st32{fill:#262326;}
	.st33{fill:url(#SVGID_8_);}
	.st34{fill:url(#SVGID_9_);}
	.st35{fill:url(#SVGID_10_);}
	.st36{fill:url(#SVGID_11_);}
	.st37{fill:url(#SVGID_12_);}
	.st38{fill:url(#SVGID_13_);}
	.st39{opacity:0.5;fill:url(#SVGID_14_);enable-background:new    ;}
	.st40{opacity:0.7;fill:url(#SVGID_15_);enable-background:new    ;}
	.st41{fill:url(#SVGID_16_);}
	.st42{fill:#8E59A4;}
	.st43{fill:url(#SVGID_17_);}
	.st44{fill:url(#SVGID_18_);}
	.st45{fill:url(#SVGID_19_);}
	.st46{fill:url(#SVGID_20_);}
	.st47{fill:url(#SVGID_21_);}
	.st48{fill:#002310;}
	.st49{fill:url(#SVGID_22_);}
	.st50{fill:url(#SVGID_23_);}
	.st51{fill:url(#SVGID_24_);}
	.st52{fill:url(#SVGID_25_);}
	.st53{fill:#0E1F00;}
	.st54{fill:url(#SVGID_26_);}
	.st55{fill:url(#SVGID_27_);}
	.st56{fill:#111E14;}
	.st57{fill:url(#SVGID_28_);}
	.st58{fill:url(#SVGID_29_);}
	.st59{fill:#23210A;}
	.st60{opacity:0.3;enable-background:new    ;}
</style>
<g>
	
		<radialGradient id="SVGID_1_" cx="1327.3013" cy="898.2339" r="41.1774" fx="1298.3419" fy="905.9172" gradientTransform="matrix(0.8375 2.475164e-02 -5.711664e-03 1.1106 30.0456 -341.9521)" gradientUnits="userSpaceOnUse">
		<stop  offset="0" style="stop-color:#000000;stop-opacity:0.5"/>
		<stop  offset="1" style="stop-color:#000000;stop-opacity:0"/>
	</radialGradient>
	<ellipse class="st0" cx="1135" cy="689.4" rx="33.5" ry="45.3"/>
	<g id="Shape_45_7_">
		<g>
			<path class="st1" d="M1230.6,593c-6.3-9.3-7.3-4.5-5.4,2.4c0.1,0.5-0.1,2.5-0.8,3.4c-7.1,9.8-27.3,40.2-28.9,40.1
				c-8.4-0.5-40.9-4.2-55.5-3.5c-5.4,0.3-18.6,9.2-18.7,6.5c0.6-8.3-6.4-13.5-6.4-13.5s1.1-1.4,1.7-3c1.2-3.1,2.4-7.5,2.4-7.5
				s-7.2-3.4-16.7,5.4c-9-0.1-16.9-0.5-25.9,5.8c-4-1.1-8-2.4-11.5-2c-2.1,0.3-3-0.3-3-0.3c0.9,0.8,0.8,2.1,1.6,2.8
				c5.3,4.4,8.6,8.4,8.6,8.4s-2.1,2.8,0,11.8c1.7,7.3,8.8,11.3,9.5,12.1c3.7,4.4,5.7,8.7,15.2,7.5c6.1-0.7,15.2-12.9,21.2-3.4
				c0.1,0.1-10.4,10.2-11.7,15.6c-0.6,2.4-2.1,7.4-3,10.8c-2.2,8.5,8,10.6,8.6,6.3c0.8-5.9-2.4-5.8,2-8.9c1.9-1.4,10.7-18,10.8-17.9
				c0.2,0.3,4.5,2.6,12.2,4.9c1.9,0.6,3.4,29.1,5.8,28.9c12-1.1,1.8-25.8,7.9-26.1c11.7-0.6,9.2-3.4,28.3-5.1
				c1-0.1,10.6,26.9,11.5,26.8c0.3,0,6.4,3.1,5.2-2.8c-1.6-7.6-5.7-21.6-5.2-21.7c1.4-0.2-0.2,3,1.2,2.8c1-0.2,11.7,25,12.6,24.8
				c2.8-0.5-2.2-25.1,0.6-25.9c1.2-0.3,0.1-10.9-0.1-26.7c-0.1-5.5-3-11.8-4.3-12.1c-0.5-0.1,30-28.5,31.3-41.6
				C1231.5,597.3,1231.1,593.7,1230.6,593z"/>
		</g>
	</g>
	<g id="Shape_46_3_">
		<g>
			<path class="st2" d="M1094.3,648.6c0.2,4.7,0.8,5.2,0.8,5.2s-0.2-6,2.8-7.6c3.1-1.6,5.4-1.8,5.4-1.8S1094,643.9,1094.3,648.6z"/>
		</g>
	</g>
	<g id="Shape_46_copy_3_">
		<g>
			<path class="st2" d="M1086.1,649.7c-0.6-4.6-9.6-2.7-9.6-2.7s2.3-0.2,5.6,0.9s4.1,7,4.1,7S1086.6,654.3,1086.1,649.7z"/>
		</g>
	</g>
	<g id="Shape_46_copy_8_2_">
		<g>
			<path class="st3" d="M1115.6,622.8c-1.1,3.2-7.5,4-7.5,4s1.3,0.8,4.1,1.4c2.2,0.4,2,1.4,2.6,1c1.7-0.9,3.8-11.3,3.8-11.3
				S1116.6,619.6,1115.6,622.8z M1062.8,630.7L1062.8,630.7C1062.7,630.8,1062.7,630.8,1062.8,630.7z M1068.6,632.2
				c-4.8-2.5-6.4-5.1-6.4-5.1s0.6,1.4,0.6,2.3c0,0.7,0.1,1.1,0,1.3c0.2-0.2,0.7-0.5,1.4,0.3c0.2,0.3,1.1-0.2,0.7,0.7
				c-0.3,0.7,0.7,0,1.6,0.8c0.6,0.5,0.6,1,0.3,1.3c0.1-0.2,1-0.2,1.6,0.3s-0.2,1.6,0.4,1.1c1.3-0.9,2.6,4.1,2.6,4.1s0.8-0.9,0.9-2.1
				C1072.4,635.7,1071.4,633.7,1068.6,632.2z"/>
		</g>
	</g>
	<g id="Shape_47_2_">
		<g>
			<path class="st4" d="M1082.8,648.5c-3.2-1.9-5.6-1.4-5.6-1.4s-3.5,0-4.4,1.4s-0.2,3.4-0.2,3.4l0.4,1.4c0,0,5.7,6.8,6.4,7
				c0.4,0.1,4.2,1,4.4,1c0.4,0,1.5-3.4,0.3-3.9c-0.8-0.4-2.3,1.8-3.7,1.6c-2.1-0.2-5.4-3.8-5.7-4.6c-0.8-1.9-1.2-5-1.1-5.1
				c0.8-1.8,3-0.3,3-0.3s-0.1,3.8,3.5,3.7c2.5,0,2.5-0.7,2.8-1c0.3-0.4,1.7,0.8,2.2,2.4c0.2,0.4,0.2,1.5,0.5,2.3
				c0.4,1.4,1.1,2.5,1.2,2.4c0.2-0.2-0.6-4.4-0.8-5.3C1085.3,651.4,1083.9,649.2,1082.8,648.5z M1114.8,647.1
				c-2.9,0.4-3.3,0.4-4.5,0.1s-0.8-2-1.7-3.3c-0.9-1.4-4.7,1-4.7,1s-2.3-0.5-5.5,1.3c-0.8,0.5-1.6,1.5-2.1,2.4
				c-0.5,1-1.1,1.9-0.8,2.3c0.1,0.1-1,7.2-0.7,7.1c0.1,0,1.6-3.5,1.8-4.4c0.2-0.9,0.1-1.4,0.6-3.2c0.3-1.1,0.6-1.9,0.9-1.5
				c0.3,0.3,0.7,1.3,3.1,1.3c3.6,0.1,3.5-3.7,3.5-3.7s2.5-2.8,3.4-1c0.9,1.7,0.1,1.4,1.9,2.7s0.3,0.6,4.1,0.2c1.1-0.1,1.3,3.5,1,4.2
				c-0.9,1.8-3,3.7-4.9,4.7c-0.8,0.4-0.9-1.5-3.7-2c-2.1-0.4-9,1.1-8.8,2.3c0.2,1.4,7.8,3.5,7.9,3.8c0.5,1,7.5-4.2,7.7-4.1
				c0.3,0.2,3.2-1.2,4.2-3.7C1118,652.5,1116.3,646.8,1114.8,647.1z"/>
		</g>
	</g>
	<g id="Shape_47_copy_2_">
		<g>
			<path class="st4" d="M1080.8,632.3c-1.3-2.5-4.1-3.3-4.1-3.3s-3-1.5-6.8-2c-1.6-0.2-7.4,0-7.4,0s4.8,1.8,7.4,3
				c2.3,1,6.8,3.6,6.8,3.6s1.8-0.2,4.1,2.3c1.6,1.7,1.7,2.7,2,3c0.8,0.7,0.6,3.5,1.3,7.2c0.2,1.2,1.3,1.5,2,3
				c0.2-0.2-1.4-5.2-1.4-6.1C1085.1,636.4,1081.3,633.4,1080.8,632.3z M1103.1,626.7c0,0-5.3,2.3-6.1,7.9c-0.1,0.9-1.5,2.3-2,3.3
				c-0.5,0.9,0.1,4.1,0,4.6c-0.2,1.7-1,5.4-0.7,5.3c0.1,0,1.6-1.8,2-3.9c0.2-0.9-0.5-3.5,0-5.3c0.3-1.1,0.8-1.6,1-2
				c0.6-1,0.9-3.9,3-4.9c0,0,2.1-2.8,5.1-3.9c3-1.2,0.8-0.4,2-0.7s1.4-1.9,1.4-2.3c0-1.4,0-1.6,1.4-3.3s1.4-1.6,3.7-3
				c1.1-0.7,3.3-1.4,4.7-1C1108,614.7,1103.1,626.7,1103.1,626.7z"/>
		</g>
	</g>
	<g id="Shape_46_copy_5_2_">
		<g>
			<path class="st2" d="M1099.8,650.5c-1.1-0.3-1.9-1.1-1.9-1.1s-1.3,2.6-0.3,2.5c1.9-0.2,1.5-0.7,3.4-0.6c2.3,0.1,3.1-1.6,3.1-1.6
				S1101.9,651.1,1099.8,650.5z"/>
		</g>
	</g>
	<g id="Shape_46_copy_6_2_">
		<g>
			<path class="st2" d="M1083.2,651.8c0,0-0.3,0.9-2.3,1.3c-1.8,0.4-3.9-1.1-3.9-1.1s1.5,2.5,3.8,1.9c2.5-0.6,3,0.2,3.4-0.1
				C1084.9,652.9,1083.3,651.8,1083.2,651.8z"/>
		</g>
	</g>
	<g id="Shape_46_copy_3_3_">
		<g>
			<path class="st5" d="M1104.7,656.2c-1.6-0.4-3.2,1.5-5.5,1.5c-2.7,0-3-1.8-8.5-1.1c-5.4,0.6-6.9,1-8.5,2.7
				c-0.9,1-2.6,0.4-2.6,0.4s2.2,8.4,13.6,8c7.5-0.2,13.3-7.6,13.3-7.6S1108.9,657.1,1104.7,656.2z"/>
		</g>
	</g>
	<g id="Shape_46_copy_4_2_">
		<g>
			<path class="st4" d="M1090.8,659.2c-2.2,0.1-3.9-0.3-3.9-0.3s1.7,2.2,2.7,3.4c0.8,0.9,0.7,1.4,1.6,1.5c0.6,0.1,0.7-1.2,1.4-2
				c1.6-1.8,2.4-3.1,2.4-3.1S1093.6,659,1090.8,659.2z"/>
		</g>
	</g>
	<g id="Shape_49_3_" class="st6">
		<g>
			<path class="st1" d="M1097.9,657.5c0,0-2.3,6.5-6.7,6.6c-4.1,0-5.7-4.7-7.4-5.9c-0.8-0.6-2.6,1.3-2.6,1.3s2.7,3.7,3.8,4.6
				c1.7,1.4,2.2,1.3,6.1,1c3-0.3,4.5,0.2,6.7-1.6c1.7-1.4,3.2-4.9,3.2-5.6C1101.1,656.4,1097.9,657.5,1097.9,657.5z"/>
		</g>
	</g>
	<g id="Shape_46_copy_10_2_">
		<g>
			<path class="st7" d="M1093.6,655.8c-0.7-1-1.9-1.5-2.8-1.7c-0.6-0.1-1.5,0.2-2.2,0.9c-1.7,1.7-1.8,4-1.8,4s1.4,0.8,4,0.7
				c2.8-0.1,4-0.9,4-0.9S1094.5,657,1093.6,655.8z"/>
		</g>
	</g>
	<g id="Shape_46_copy_7_2_">
		<g>
			<path class="st4" d="M1095.1,623.3c-1.5,3-3.3,13.7-3.7,13.8c0.4-4.9,1-5.1,1.1-9c0.1-1.5,1.5-4.8,1.4-4.7c-0.2,0-3,0.2-4.6,0.3
				c-0.2,2.6-1.4,3.8-1.7,6.5c-0.3,2.4,0.1,5.4,0,7.1c-1.1-2.5,0-12-3.3-12.3c-4.5,1.4-7.2,3.6-7.2,3.6s4.9,2.3,6.4,5.6
				c1.6,3.6,2.3,8.3,2.2,10.7c0.5,1.6,0.4,3.4,1.3,4.6c1.4,2,0.5,4.9,1,6.9c0.6,2,1.2,3.9,1.7,4.6c0.6,1,1.4-1.6,1.7-5.3
				c0.2-1.9-0.4-3.6,0-6.2c0.2-1.1,1.7-3,2-3.9c1.2-4.3-0.4-5.6,0.7-8c1.1-2.3,1.2-9.6,7.8-14.3
				C1101.9,623.3,1097.1,623.1,1095.1,623.3z"/>
		</g>
	</g>
	<g id="Shape_46_copy_2_3_">
		<g>
			<path class="st8" d="M1092.7,666.2c-4.9,0.5-8.8-1-8.8-1s3.8,3.5,9.1,3.5c6.2,0,9.5-4.6,9.5-4.6S1097.6,665.7,1092.7,666.2z"/>
		</g>
	</g>
	<g id="Shape_48_2_">
		<g>
			<path class="st2" d="M1079.4,651.3c-1.5-0.3-2-2.2-2-2.2s0.4,2.9,2.3,3c1.1,0,2.6-0.5,2.8-1
				C1082.5,651,1081.4,651.7,1079.4,651.3z"/>
		</g>
	</g>
	<g id="Shape_48_copy_2_">
		<g>
			<path class="st2" d="M1100.2,649.3c-1.5-0.2-2.2-2.5-2.2-2.5s0.4,2.9,2.3,3c1.1,0,2.6-0.5,2.8-1
				C1103.1,648.7,1101.7,649.5,1100.2,649.3z"/>
		</g>
	</g>
	<path class="st2" d="M1105.2,699.1c0,0,1.1,1.1,3.4,1.3c0.8,0.1,1.1,0,1.5-0.3c0,0-0.7-0.2-1.1-0.6c-0.9-0.8-1.2-1.7-1.2-1.7
		s0.5,0.5,1.8,1.2c0.7,0.4,1.5,0,1.5,0c0.5-0.5,0.3-0.9,0.3-1.7c0-1.5,0-1.6-0.5-3.3s-3.2,0-5,1.3
		C1104.1,696.6,1103.9,698.2,1105.2,699.1z"/>
	<path class="st9" d="M1113.7,689.8c0,0-1.4,0.7-4.3,0.7c-3,0-3.6-0.5-3.6-0.5s2,0.2,5.6-1s4.6-2.4,4.6-2.4
		S1114.5,689.4,1113.7,689.8z"/>
	<path class="st9" d="M1106.4,681.9c0,0,1,1,3.7,2.3s5.5,1.2,5.5,1.2s-1.8-0.5-4.6-3.3c-2.8-2.8-3.2-3.9-3.2-3.9
		S1105.8,681.2,1106.4,681.9z"/>
	<path class="st9" d="M1117,630.2c0,0-4.2-2-5-2.1c-1.5-0.3-2.6-0.8-3.2-1.1c-0.5-0.2-1.2-0.2-1.7-0.1c-0.3,0.1-0.7,0.2-1,0.4
		c-0.7,0.5-2,1.2-3.9,2.2c-1.8,0.9-2.4,2.5-2.4,2.5s3.9-2.1,7.4-1.3c3.6,0.8-0.3,12.7,2.6,12c1-0.2,2.9-4.4,4.6-3.6
		c3.2,1.6,5.9,6.4,5.9,6.4L1117,630.2z"/>
	<path class="st9" d="M1229.8,598.9c0,0-0.7,0.3-2.2,0s-1.6-0.8-1.6-0.8s0.9,0.4,2.8-0.1s2.5-1.2,2.5-1.2S1230.2,598.7,1229.8,598.9
		z"/>
	<path class="st9" d="M1225.3,594.9c0,0,0.5,0.6,1.8,1.1s4.1-0.1,4.1-0.1s-2.3-0.3-4.3-1.8c-1.9-1.5-2.4-2.3-2.4-2.3
		S1224.9,594.5,1225.3,594.9z"/>
	<g id="Shape_50_3_" class="st10">
		<g>
			<path class="st11" d="M1071,671.5c0,0,2.6-4.2,6-6.5s6.8-3.8,6.8-3.8S1074.6,663.6,1071,671.5z"/>
		</g>
	</g>
	<g id="Shape_50_copy_3_" class="st10">
		<g>
			<path class="st11" d="M1074.2,670.7c0,0,2.4-4.2,4.6-5.6c2.2-1.4,5.9-2.9,5.9-2.9S1077.3,663.3,1074.2,670.7z"/>
		</g>
	</g>
	<g id="Shape_50_copy_2_3_" class="st10">
		<g>
			<path class="st11" d="M1069.6,669.3c0,0,2.7-3.4,6.5-5.6s7.4-3.3,7.4-3.3S1074,661.9,1069.6,669.3z"/>
		</g>
	</g>
	<g id="Shape_50_copy_3_3_" class="st10">
		<g>
			<path class="st11" d="M1077.1,673c0,0,1.2-3.9,3.7-6.1c2.6-2.3,5-3.8,5-3.8S1078.8,665.4,1077.1,673z"/>
		</g>
	</g>
	<g id="Shape_50_copy_4_15_" class="st10">
		<g>
			<path class="st11" d="M1098.9,659c0,0,1.1,0.1,2.8,0.4C1099.5,658.7,1098.9,659,1098.9,659z M1112.9,665.8
				c0.2,0.2,0.3,0.4,0.5,0.6C1113.4,666.4,1113.3,666.2,1112.9,665.8z M1101.7,659.4c1.1,0.4,2.6,1,4.6,2c4.1,2.1,5.8,3.6,6.6,4.3
				C1109.6,661.7,1104.8,660.1,1101.7,659.4z"/>
		</g>
	</g>
	<g id="Shape_50_copy_4_11_" class="st10">
		<g>
			<path class="st11" d="M1098.2,660c0,0,2.1,0.1,5.9,1.9c4,1.9,5.7,3.9,5.9,4.2C1105.6,659.7,1098.2,660,1098.2,660z"/>
		</g>
	</g>
	<g id="Shape_50_copy_4_8_" class="st10">
		<g>
			<path class="st11" d="M1098.9,658.1c0,0,4.4-0.2,9,2c3.9,1.8,6.3,3.9,6.3,3.9C1108.7,657.7,1098.9,658.1,1098.9,658.1z"/>
		</g>
	</g>
	<g id="Shape_50_copy_4_5_" class="st10">
		<g>
			<path class="st11" d="M1097.1,661.2c0,0,2.1,0.4,5.4,2.6s5.1,5.3,5.1,5.3C1104.5,662,1097.1,661.2,1097.1,661.2z"/>
		</g>
	</g>
	<g id="Shape_45_5_">
		<g>
			
				<radialGradient id="SVGID_2_" cx="1145.6344" cy="699.1749" r="27.4921" fx="1123.1262" fy="696.4686" gradientTransform="matrix(0.9842 0.177 -0.3359 1.8676 190.4931 -871.5631)" gradientUnits="userSpaceOnUse">
				<stop  offset="0" style="stop-color:#E8DEE0;stop-opacity:0.3"/>
				<stop  offset="1" style="stop-color:#FFFFFF;stop-opacity:0"/>
			</radialGradient>
			<path class="st12" d="M1230.6,593c-6.3-9.3-7.3-4.5-5.4,2.4c0.1,0.5-0.1,2.5-0.8,3.4c-7.1,9.8-27.3,40.2-28.9,40.1
				c-8.4-0.5-40.9-4.2-55.5-3.5c-5.4,0.3-18.6,9.2-18.7,6.5c0.6-8.3-6.4-13.5-6.4-13.5s1.1-1.4,1.7-3c1.2-3.1,2.4-7.5,2.4-7.5
				s-7.2-3.4-16.7,5.4c-9-0.1-16.9-0.5-25.9,5.8c-4-1.1-8-2.4-11.5-2c-2.1,0.3-3-0.3-3-0.3c0.9,0.8,0.8,2.1,1.6,2.8
				c5.3,4.4,8.6,8.4,8.6,8.4s-2.1,2.8,0,11.8c1.7,7.3,8.8,11.3,9.5,12.1c3.7,4.4,5.7,8.7,15.2,7.5c6.1-0.7,15.2-12.9,21.2-3.4
				c0.1,0.1-10.4,10.2-11.7,15.6c-0.6,2.4-2.1,7.4-3,10.8c-2.2,8.5,8,10.6,8.6,6.3c0.8-5.9-2.4-5.8,2-8.9c1.9-1.4,10.7-18,10.8-17.9
				c0.2,0.3,4.5,2.6,12.2,4.9c1.9,0.6,3.4,29.1,5.8,28.9c12-1.1,1.8-25.8,7.9-26.1c11.7-0.6,9.2-3.4,28.3-5.1
				c1-0.1,10.6,26.9,11.5,26.8c0.3,0,6.4,3.1,5.2-2.8c-1.6-7.6-5.7-21.6-5.2-21.7c1.4-0.2-0.2,3,1.2,2.8c1-0.2,11.7,25,12.6,24.8
				c2.8-0.5-2.2-25.1,0.6-25.9c1.2-0.3,0.1-10.9-0.1-26.7c-0.1-5.5-3-11.8-4.3-12.1c-0.5-0.1,30-28.5,31.3-41.6
				C1231.5,597.3,1231.1,593.7,1230.6,593z"/>
		</g>
	</g>
</g>
<g>
	<g>
		<path d="M1126.6,706.1c-3.5,0-6.4-2.9-6.4-6.4v-94.6c0-3.5,2.9-6.4,6.4-6.4h155.1c3.5,0,6.4,2.9,6.4,6.4v94.6
			c0,3.5-2.9,6.4-6.4,6.4H1126.6L1126.6,706.1z"/>
		<path class="st13" d="M1281.7,600.1c2.7,0,4.9,2.2,4.9,4.9v94.6c0,2.7-2.2,4.9-4.9,4.9h-155.1c-2.7,0-4.9-2.2-4.9-4.9V605
			c0-2.7,2.2-4.9,4.9-4.9H1281.7L1281.7,600.1 M1281.7,597.1L1281.7,597.1h-155.1c-4.4,0-7.9,3.6-7.9,7.9v94.6
			c0,4.4,3.6,7.9,7.9,7.9l0,0h155.1c4.4,0,7.9-3.6,7.9-7.9V605C1289.6,600.7,1286.1,597.1,1281.7,597.1L1281.7,597.1z"/>
	</g>
	<g class="st10">
		<rect x="1124.6" y="606.1" class="st14" width="159.6" height="93"/>
	</g>
	<g>
		<ellipse class="st15" cx="1204.1" cy="602.1" rx="2.2" ry="2.3"/>
	</g>
	<g>
		<path class="st16" d="M1209.6,602.8c-0.4,0-0.7-0.3-0.7-0.7s0.3-0.7,0.7-0.7s0.7,0.3,0.7,0.7
			C1210.3,602.5,1210,602.8,1209.6,602.8L1209.6,602.8z"/>
		<path d="M1209.6,601.9c0.1,0,0.2,0.1,0.2,0.2c0,0.1-0.1,0.2-0.2,0.2s-0.2-0.1-0.2-0.2S1209.5,601.9,1209.6,601.9 M1209.6,600.9
			L1209.6,600.9c-0.7,0-1.2,0.5-1.2,1.2s0.5,1.2,1.2,1.2l0,0c0.7,0,1.2-0.5,1.2-1.2C1210.8,601.4,1210.2,600.9,1209.6,600.9
			L1209.6,600.9z"/>
	</g>
	<g>
		<ellipse class="st13" cx="1204.1" cy="602.1" rx="0.8" ry="0.8"/>
	</g>
	<path class="st17" d="M1143.1,621.6L1143.1,621.6c-1.7,0-3-1.4-3-3v-0.2c0-1.7,1.4-3,3-3l0,0c1.7,0,3,1.4,3,3v0.2
		C1146.2,620.2,1144.8,621.6,1143.1,621.6z"/>
	<rect x="1124.6" y="606.1" class="st18" width="159.5" height="3.5"/>
	<path class="st17" d="M1268.3,688.7h-6.7c-1.2,0-2.1-0.9-2.1-2.1l0,0c0-1.2,0.9-2.1,2.1-2.1h6.7c1.2,0,2.1,0.9,2.1,2.1l0,0
		C1270.5,687.8,1269.5,688.7,1268.3,688.7z"/>
	<path class="st17" d="M1148.9,688.7h-6.7c-1.2,0-2.1-0.9-2.1-2.1l0,0c0-1.2,0.9-2.1,2.1-2.1h6.7c1.2,0,2.1,0.9,2.1,2.1l0,0
		C1151,687.8,1150.1,688.7,1148.9,688.7z"/>
	<rect x="1259.5" y="616.3" class="st17" width="10.9" height="4.2"/>
	<g>
		<rect x="1140.1" y="629.9" class="st17" width="130.4" height="51.7"/>
		<rect x="1163.4" y="632.1" class="st19" width="83.8" height="47.2"/>
		<ellipse class="st20" cx="1143.3" cy="633.1" rx="1.3" ry="1.3"/>
	</g>
	<g>
		<ellipse class="st21" cx="1126.5" cy="608.1" rx="0.8" ry="0.7"/>
		<ellipse class="st22" cx="1129.7" cy="608.1" rx="0.8" ry="0.7"/>
		<ellipse class="st23" cx="1132.9" cy="608.1" rx="0.8" ry="0.7"/>
	</g>
	<g class="st24">
		
			<linearGradient id="SVGID_3_" gradientUnits="userSpaceOnUse" x1="1140.829" y1="689.1822" x2="1267.3878" y2="815.741" gradientTransform="matrix(1 -2.662073e-04 2.662073e-04 1 -0.2087 -99.9147)">
			<stop  offset="0" style="stop-color:#000000"/>
			<stop  offset="0.1007" style="stop-color:#161616"/>
			<stop  offset="0.2626" style="stop-color:#343434"/>
			<stop  offset="0.4015" style="stop-color:#464646"/>
			<stop  offset="0.5004" style="stop-color:#4D4D4D"/>
			<stop  offset="0.5037" style="stop-color:#4B4B4B"/>
			<stop  offset="0.5049" style="stop-color:#444444"/>
			<stop  offset="0.5057" style="stop-color:#393939"/>
			<stop  offset="0.5064" style="stop-color:#282828"/>
			<stop  offset="0.507" style="stop-color:#121212"/>
			<stop  offset="0.5074" style="stop-color:#000000"/>
			<stop  offset="0.7537" style="stop-color:#1C1C1C"/>
			<stop  offset="1" style="stop-color:#333333"/>
		</linearGradient>
		<rect x="1124.3" y="605.5" class="st25" width="159.6" height="93.5"/>
	</g>
	<g>
		<g>
			<path class="st26" d="M1284.4,713.5h-157.8c-3.6,0-6.5-2.1-6.5-4.8v-2.6c0-1.1,1.2-2,2.7-2h165.5c1.5,0,2.7,0.9,2.7,1.9v2.6
				C1290.9,711.3,1288,713.5,1284.4,713.5z"/>
		</g>
		<g>
			<g>
				<path class="st27" d="M1260.7,713.5h-157.8c-3.6,0-6.5-2.1-6.5-4.8v-2.6c0-1.1,1.2-2,2.7-2h165.5c1.5,0,2.7,0.9,2.7,1.9v2.6
					C1267.2,711.3,1264.3,713.5,1260.7,713.5z"/>
			</g>
			<g>
				<path class="st13" d="M1201.5,708.3H1162c-0.9,0-1.6-1-1.6-2.1V705c0-0.5,0.3-0.9,0.7-0.9h41.4c0.4,0,0.7,0.4,0.7,0.9v1.2
					C1203.1,707.4,1202.4,708.3,1201.5,708.3z"/>
			</g>
		</g>
		<g>
			<g>
				
					<radialGradient id="SVGID_4_" cx="1108.5012" cy="1013.9494" r="116.7839" fx="1106.7008" fy="1013.731" gradientTransform="matrix(1 -6.393231e-05 -2.148571e-05 0.2553 3.456536e-02 443.0976)" gradientUnits="userSpaceOnUse">
					<stop  offset="0" style="stop-color:#FFFFFF;stop-opacity:0.5"/>
					<stop  offset="0.9313" style="stop-color:#FFFFFF;stop-opacity:3.435552e-02"/>
					<stop  offset="1" style="stop-color:#FFFFFF;stop-opacity:0"/>
				</radialGradient>
				<path class="st28" d="M1260.7,713.5h-157.8c-3.6,0-6.5-2.1-6.5-4.8v-2.6c0-1.1,1.2-2,2.7-2h165.5c1.5,0,2.7,0.9,2.7,1.9v2.6
					C1267.2,711.3,1264.3,713.5,1260.7,713.5z"/>
			</g>
			<g>
				
					<radialGradient id="SVGID_5_" cx="1166.2275" cy="1222.0002" r="39.6183" fx="1165.2719" fy="1222.0173" gradientTransform="matrix(1 -6.393231e-05 -1.413761e-05 0.168 2.976746e-02 500.1063)" gradientUnits="userSpaceOnUse">
					<stop  offset="0" style="stop-color:#000000;stop-opacity:0.45"/>
					<stop  offset="0.7485" style="stop-color:#000000;stop-opacity:0.3569"/>
					<stop  offset="0.8037" style="stop-color:#000000;stop-opacity:0.35"/>
					<stop  offset="0.8339" style="stop-color:#0C0C0C;stop-opacity:0.3346"/>
					<stop  offset="0.8889" style="stop-color:#2D2D2D;stop-opacity:0.3066"/>
					<stop  offset="0.9622" style="stop-color:#626262;stop-opacity:0.2693"/>
					<stop  offset="1" style="stop-color:#808080;stop-opacity:0.25"/>
				</radialGradient>
				<path class="st29" d="M1201.5,708.3H1162c-0.9,0-1.6-1-1.6-2.1V705c0-0.5,0.3-0.9,0.7-0.9h41.4c0.4,0,0.7,0.4,0.7,0.9v1.2
					C1203.1,707.4,1202.4,708.3,1201.5,708.3z"/>
			</g>
		</g>
	</g>
</g>
<g>
	<g>
		
			<linearGradient id="SVGID_6_" gradientUnits="userSpaceOnUse" x1="337.7469" y1="803.1713" x2="326.8829" y2="784.3542" gradientTransform="matrix(-1 0 0 1 623.7 -100)">
			<stop  offset="0" style="stop-color:#000000"/>
			<stop  offset="0.4731" style="stop-color:#000000"/>
			<stop  offset="0.5438" style="stop-color:#000000"/>
			<stop  offset="0.6117" style="stop-color:#040303"/>
			<stop  offset="0.6765" style="stop-color:#0F0D0C"/>
			<stop  offset="0.74" style="stop-color:#231E1A"/>
			<stop  offset="0.8029" style="stop-color:#3E362F"/>
			<stop  offset="0.8652" style="stop-color:#60554A"/>
			<stop  offset="0.9262" style="stop-color:#8B796A"/>
			<stop  offset="0.9448" style="stop-color:#998675"/>
			<stop  offset="0.9526" style="stop-color:#958577"/>
			<stop  offset="1" style="stop-color:#808080"/>
		</linearGradient>
		<path class="st30" d="M291.1,682.7c-4.9,0-8.8,5.1-8.8,11.5s4,11.5,8.9,11.5s8.8-5.1,8.8-11.5C300,687.9,296,682.8,291.1,682.7z
			 M291.2,702.4c-3,0-5.4-3.5-5.4-8s2.4-8.1,5.3-8.1c3,0,5.4,3.5,5.4,8C296.5,698.7,294.2,702.3,291.2,702.4z"/>
	</g>
	<g>
		
			<linearGradient id="SVGID_7_" gradientUnits="userSpaceOnUse" x1="296.7394" y1="807.6023" x2="311.2029" y2="801.7589" gradientTransform="matrix(-1.1666 4.508274e-04 -4.508275e-04 1.0785 643.8112 -173.8985)">
			<stop  offset="0" style="stop-color:#5B5553"/>
			<stop  offset="1.047402e-02" style="stop-color:#575250"/>
			<stop  offset="0.1018" style="stop-color:#3C3838"/>
			<stop  offset="0.1938" style="stop-color:#282527"/>
			<stop  offset="0.2863" style="stop-color:#1C1A1D"/>
			<stop  offset="0.3797" style="stop-color:#18161A"/>
		</linearGradient>
		<path class="st31" d="M289.2,684.4c-4.9,0.1-8.8,4.5-8.8,9.9s4,9.9,8.9,9.8s8.8-4.5,8.8-9.9C298,688.8,294.1,684.4,289.2,684.4z
			 M289.3,701.7c-3.5,0-6.3-3.3-6.3-7.4s2.7-7.4,6.2-7.4s6.3,3.3,6.3,7.4C295.5,698.3,292.8,701.7,289.3,701.7z"/>
	</g>
	<g>
		
			<rect x="265.3" y="709.5" transform="matrix(1 -5.118289e-03 5.118289e-03 1 -3.6403 1.4314)" class="st32" width="25" height="4.9"/>
	</g>
	<g>
		
			<linearGradient id="SVGID_8_" gradientUnits="userSpaceOnUse" x1="331.5423" y1="791.8535" x2="359.4624" y2="791.8535" gradientTransform="matrix(-1 5.118423e-03 5.118423e-03 1 619.2081 -100.211)">
			<stop  offset="0" style="stop-color:#B0A599"/>
			<stop  offset="1.240855e-02" style="stop-color:#9B9287"/>
			<stop  offset="3.777342e-02" style="stop-color:#777067"/>
			<stop  offset="6.633654e-02" style="stop-color:#57514B"/>
			<stop  offset="9.791768e-02" style="stop-color:#3B3834"/>
			<stop  offset="0.1336" style="stop-color:#252320"/>
			<stop  offset="0.1752" style="stop-color:#141312"/>
			<stop  offset="0.2267" style="stop-color:#090808"/>
			<stop  offset="0.2989" style="stop-color:#020202"/>
			<stop  offset="0.4994" style="stop-color:#000000"/>
			<stop  offset="0.5566" style="stop-color:#050505"/>
			<stop  offset="0.6201" style="stop-color:#121212"/>
			<stop  offset="0.6473" style="stop-color:#1A1A1A"/>
			<stop  offset="0.7568" style="stop-color:#070707"/>
			<stop  offset="0.8107" style="stop-color:#110D17"/>
			<stop  offset="0.9158" style="stop-color:#2B1E41"/>
			<stop  offset="1" style="stop-color:#422D67"/>
		</linearGradient>
		<path class="st33" d="M291.8,709.2l-0.2-35.1l-27.9,0.1l0.2,35.1c0,1.9,1.6,3.5,3.6,3.5l20.8-0.1
			C290.2,712.7,291.8,711.1,291.8,709.2z"/>
	</g>
</g>
<g id="Layer_22">
	<g>
		<g>
			
				<linearGradient id="SVGID_9_" gradientUnits="userSpaceOnUse" x1="10146.4102" y1="2247.7625" x2="10161.8926" y2="2247.7625" gradientTransform="matrix(1 0 0 1 -9941.8525 -1618.8049)">
				<stop  offset="2.055547e-03" style="stop-color:#154A40"/>
				<stop  offset="1" style="stop-color:#5B9347"/>
			</linearGradient>
			<path class="st34" d="M206.9,646.1c-0.9-15,0.8-21.6,4.5-28.9c3.7-7.3,8.7-9.1,8.7-9.1L220,607c0,0-5.4,1-9.1,8.3
				c-6.9,13.6-6.3,20.5-6.3,20.5S207.7,661.1,206.9,646.1z"/>
			
				<radialGradient id="SVGID_10_" cx="-3477.9255" cy="-1113.6448" r="36.1694" fx="-3478.0618" fy="-1113.7537" gradientTransform="matrix(-0.901 -0.4339 -0.4025 0.8358 -3369.1147 31.1455)" gradientUnits="userSpaceOnUse">
				<stop  offset="0.1636" style="stop-color:#463547"/>
				<stop  offset="0.2631" style="stop-color:#324444"/>
				<stop  offset="0.4578" style="stop-color:#006A3C"/>
				<stop  offset="0.6691" style="stop-color:#158143"/>
				<stop  offset="1" style="stop-color:#3DAC51"/>
			</radialGradient>
			<path class="st35" d="M205.4,577.6c0,0,4.9,5.7,8.4,17.4s6.1,13.2,6.1,13.2s-11.8-4.3-14.1-12.1S205.4,577.6,205.4,577.6z"/>
			
				<radialGradient id="SVGID_11_" cx="5307.6362" cy="-6890.4663" r="36.7985" fx="5307.4976" fy="-6890.5771" gradientTransform="matrix(-0.1628 0.7073 -0.8203 0.1899 -4576.4888 -1835.3693)" gradientUnits="userSpaceOnUse">
				<stop  offset="0.1636" style="stop-color:#463547"/>
				<stop  offset="0.2631" style="stop-color:#324444"/>
				<stop  offset="0.4578" style="stop-color:#006A3C"/>
				<stop  offset="0.6691" style="stop-color:#158143"/>
				<stop  offset="1" style="stop-color:#3DAC51"/>
			</radialGradient>
			<path class="st36" d="M233.9,618.8c0,0-1.6-4.3-8.2-8.2c-6.6-3.9-1-5.5-6.3-6c-5.3-0.5-3.1,9.1,1.3,11.7
				C225.1,618.9,233.9,618.8,233.9,618.8z"/>
			
				<radialGradient id="SVGID_12_" cx="8817.6484" cy="12374.3877" r="79.7804" fx="8784.7812" fy="12376.2734" gradientTransform="matrix(0.3749 -0.8846 0.3828 0.2511 -7833.9634 5376.8179)" gradientUnits="userSpaceOnUse">
				<stop  offset="0.2722" style="stop-color:#5F5A5C"/>
				<stop  offset="0.4496" style="stop-color:#98979A"/>
				<stop  offset="0.9793" style="stop-color:#E9DCE6"/>
			</radialGradient>
			<path class="st37" d="M203.7,713.8c-6.6,0-13.4-1.4-13.4-23.5s12.2-29,12.2-47c0-13.1-1.7-21.1-2.7-24.4c-0.3-0.9,0.2-1.8,1-1.8
				h14.1c0.9,0,1.5,1.2,1.2,2.2c-1,3.2-2.5,10.2-2.5,24.1c0,16.6,13.3,26.3,13.3,47s-4.5,23.5-12.8,23.5
				C214.1,713.9,210.2,713.9,203.7,713.8z"/>
			
				<linearGradient id="SVGID_13_" gradientUnits="userSpaceOnUse" x1="10132.0273" y1="2284.3362" x2="10168.6904" y2="2284.3362" gradientTransform="matrix(1 0 0 1 -9941.8525 -1618.8049)">
				<stop  offset="0.143" style="stop-color:#180012;stop-opacity:0.59"/>
				<stop  offset="0.1722" style="stop-color:#230D1C;stop-opacity:0.6265"/>
				<stop  offset="0.2437" style="stop-color:#382832;stop-opacity:0.716"/>
				<stop  offset="0.3168" style="stop-color:#483B41;stop-opacity:0.8074"/>
				<stop  offset="0.3916" style="stop-color:#51464A;stop-opacity:0.901"/>
				<stop  offset="0.4708" style="stop-color:#544A4D"/>
				<stop  offset="0.5486" style="stop-color:#62585B;stop-opacity:0.8824"/>
				<stop  offset="0.6967" style="stop-color:#887D80;stop-opacity:0.6586"/>
				<stop  offset="0.8978" style="stop-color:#C5B8BB;stop-opacity:0.3545"/>
				<stop  offset="1" style="stop-color:#E6D8DB;stop-opacity:0.2"/>
			</linearGradient>
			<path class="st38" d="M203.7,713.8c-6.6,0-13.4-1.4-13.4-23.5s12.2-29,12.2-47c0-13.1-1.7-21.1-2.7-24.4c-0.3-0.9,0.2-1.8,1-1.8
				h14.1c0.9,0,1.5,1.2,1.2,2.2c-1,3.2-2.5,10.2-2.5,24.1c0,16.6,13.3,26.3,13.3,47s-4.5,23.5-12.8,23.5
				C214.1,713.9,210.2,713.9,203.7,713.8z"/>
			
				<linearGradient id="SVGID_14_" gradientUnits="userSpaceOnUse" x1="324.1614" y1="366.7123" x2="345.0167" y2="430.3476" gradientTransform="matrix(-1 0 0 -1 535.7521 1051.5894)">
				<stop  offset="0" style="stop-color:#230D1C;stop-opacity:0.6265"/>
				<stop  offset="0.4349" style="stop-color:#62585B;stop-opacity:0.8824"/>
				<stop  offset="0.9952" style="stop-color:#FFFFFF;stop-opacity:0.2"/>
			</linearGradient>
			<path class="st39" d="M203.7,713.8c-6.6,0-13.4-1.4-13.4-23.5s12.2-29,12.2-47c0-13.1-1.7-21.1-2.7-24.4c-0.3-0.9,0.2-1.8,1-1.8
				h14.1c0.9,0,1.5,1.2,1.2,2.2c-1,3.2-2.5,10.2-2.5,24.1c0,16.6,13.3,26.3,13.3,47s-4.5,23.5-12.8,23.5
				C214.1,713.9,210.2,713.9,203.7,713.8z"/>
			
				<linearGradient id="SVGID_15_" gradientUnits="userSpaceOnUse" x1="328.0357" y1="434.0157" x2="328.0357" y2="432.2929" gradientTransform="matrix(-1 0 0 -1 535.7521 1051.5894)">
				<stop  offset="0" style="stop-color:#63455E"/>
				<stop  offset="1" style="stop-color:#957797;stop-opacity:0.9"/>
			</linearGradient>
			<path class="st40" d="M199.6,618.9c-0.3-0.9,0.2-1.8,1-1.8h14.1c0.9,0,1.5,1.2,1.2,2.2v0.1h-16.1
				C199.8,619.3,199.7,619.1,199.6,618.9z"/>
			
				<linearGradient id="SVGID_16_" gradientUnits="userSpaceOnUse" x1="10150.7432" y1="2329.3123" x2="10150.417" y2="2333.2119" gradientTransform="matrix(1 0 0 1 -9941.8525 -1618.8049)">
				<stop  offset="0" style="stop-color:#4E464D;stop-opacity:0"/>
				<stop  offset="9.560943e-03" style="stop-color:#4C444B;stop-opacity:4.780471e-03"/>
				<stop  offset="0.1547" style="stop-color:#362B30;stop-opacity:7.733420e-02"/>
				<stop  offset="0.3115" style="stop-color:#24181B;stop-opacity:0.1557"/>
				<stop  offset="0.4861" style="stop-color:#180B0C;stop-opacity:0.2431"/>
				<stop  offset="0.691" style="stop-color:#100203;stop-opacity:0.3455"/>
				<stop  offset="1" style="stop-color:#0E0000;stop-opacity:0.5"/>
			</linearGradient>
			<path class="st41" d="M222.4,711.3c-2,2-4.8,2.5-8.3,2.5c0,0-3.9,0-10.5,0c-2.9,0-5.9-0.2-8.3-2.5H222.4z"/>
		</g>
		<g>
			<path class="st42" d="M235.2,708.6c-8.5,4.3-21.1-0.6-18.5-6.8c2.5-6.2,8.2-7.1,14.6-9.2s20.7-4,18.4,5
				C249.7,697.6,243.7,704.2,235.2,708.6z"/>
			
				<radialGradient id="SVGID_17_" cx="10380.1504" cy="1671.064" r="34.5329" gradientTransform="matrix(0.8996 -0.2445 -0.273 -1.1674 -8667.5928 5196.8975)" gradientUnits="userSpaceOnUse">
				<stop  offset="0" style="stop-color:#463547"/>
				<stop  offset="0.1832" style="stop-color:#322536"/>
				<stop  offset="0.2893" style="stop-color:#241A2B"/>
				<stop  offset="0.582" style="stop-color:#381F42"/>
				<stop  offset="1" style="stop-color:#5B2769"/>
			</radialGradient>
			<path class="st43" d="M230,713.8c-10,0-19.9-1.5-15.3-6.2c4.6-4.6,10.6-8.6,17.2-7.9c6.6,0.7,23.8-2.1,15.4,6.6
				C238.8,715,240,713.8,230,713.8z"/>
			
				<linearGradient id="SVGID_18_" gradientUnits="userSpaceOnUse" x1="5458.2583" y1="-2396.5203" x2="5477.792" y2="-2396.5203" gradientTransform="matrix(4.489678e-11 -1 -1 -4.489678e-11 -2167.3635 6166.0811)">
				<stop  offset="2.055547e-03" style="stop-color:#442979"/>
				<stop  offset="1" style="stop-color:#A27FA1"/>
			</linearGradient>
			<path class="st44" d="M223.9,690.5c-8.3,4.8-12.7,15.4-6.5,16.9c6.2,1.5,9.4-1.5,14.8-5.8s17-8.1,8.9-11.5
				C241.1,690.1,232.2,685.7,223.9,690.5z"/>
			
				<radialGradient id="SVGID_19_" cx="-2467.7461" cy="7480.1802" r="39.8949" fx="-2461.7605" fy="7469.2109" gradientTransform="matrix(-0.4742 0.4937 0.2684 0.7507 -2963.1453 -3683.863)" gradientUnits="userSpaceOnUse">
				<stop  offset="0.1636" style="stop-color:#354D22"/>
				<stop  offset="0.2904" style="stop-color:#21582C"/>
				<stop  offset="0.4578" style="stop-color:#006A3C"/>
				<stop  offset="0.6691" style="stop-color:#158143"/>
				<stop  offset="1" style="stop-color:#3DAC51"/>
			</radialGradient>
			<path class="st45" d="M203.5,713.8c0,0-2.3-0.5-2.7-2.5c-0.5-2.5-1-3.9,3.8-3.9c4.8,0,5.8,2.7,5.2,3.2c-0.3,0.2-2.2-1.6-5-1.6
				s-2.1,1.1-1.7,2c0.3,0.7,1.4,0.5,2.6,0.5c4.4,0,7.2-2.3,9.4-4c1.7-1.3,3.5-2.5,2.6,0.1c-1.2,3.5-6.9,6.3-10.9,6.3L203.5,713.8z"
				/>
			
				<radialGradient id="SVGID_20_" cx="321.2927" cy="2329.1824" r="17.8948" gradientTransform="matrix(-1 0 0 1 535.7521 -1618.8048)" gradientUnits="userSpaceOnUse">
				<stop  offset="0.1636" style="stop-color:#354D22"/>
				<stop  offset="0.2904" style="stop-color:#21582C"/>
				<stop  offset="0.4578" style="stop-color:#006A3C"/>
				<stop  offset="0.6691" style="stop-color:#158143"/>
				<stop  offset="1" style="stop-color:#3DAC51"/>
			</radialGradient>
			<path class="st46" d="M215.4,713.8l14.2,0c0,0-2.5-3.8-9.1-7.4c-6.6-3.6-3.6-9.6-6-5.9C211.7,704.9,211,713.8,215.4,713.8
				L215.4,713.8z"/>
		</g>
	</g>
</g>
<g id="Layer_18">
	<g>
		
			<radialGradient id="SVGID_21_" cx="571.476" cy="138.3057" r="30.8934" fx="561.4536" fy="143.021" gradientTransform="matrix(-0.9109 0.4126 -0.886 -1.9561 737.2435 634.6585)" gradientUnits="userSpaceOnUse">
			<stop  offset="0" style="stop-color:#006837"/>
			<stop  offset="2.460677e-02" style="stop-color:#026335"/>
			<stop  offset="0.2203" style="stop-color:#0D4325"/>
			<stop  offset="0.4088" style="stop-color:#152C1A"/>
			<stop  offset="0.5852" style="stop-color:#1A1E13"/>
			<stop  offset="0.7374" style="stop-color:#1C1911"/>
		</radialGradient>
		<path class="st47" d="M93.6,591.9c4.5-0.4,10,5.1,11.2,15.4c1.2,10.3,5.4,11.5,6.3,19.2c2.3,20.7-12.7,29.5-13.4,28
			c-9.6-20.8-13.1-13.9-17.3-26.5C76.3,615.4,85.4,592.7,93.6,591.9z"/>
		<path class="st48" d="M100.4,619.7l-0.1-5.1c0,0,0.2-2.9,3.3-11.8c2.3-6.5,2.6-15.3,8.4-22.4c3.4-4.2,11.8-2.1,14.6-1.2
			c3.3,1.1,3.8,7.2,0.2,20.5C123.2,612.9,100.4,619.7,100.4,619.7L100.4,619.7z"/>
		
			<radialGradient id="SVGID_22_" cx="281.5531" cy="1242.0917" r="17.5241" fx="279.3694" fy="1242.0438" gradientTransform="matrix(-0.8801 -0.4748 1.2389 -2.2962 -1185.161 3590.771)" gradientUnits="userSpaceOnUse">
			<stop  offset="0.4458" style="stop-color:#003320"/>
			<stop  offset="0.5801" style="stop-color:#003621"/>
			<stop  offset="0.6891" style="stop-color:#004025"/>
			<stop  offset="0.7893" style="stop-color:#00512C"/>
			<stop  offset="0.8842" style="stop-color:#006935"/>
			<stop  offset="0.9746" style="stop-color:#008841"/>
			<stop  offset="1" style="stop-color:#009245"/>
		</radialGradient>
		<path class="st49" d="M103.1,620.6l0-5.1c0,0,2-2.9,5.1-11.8c2.3-6.5,1.7-13.6,7.5-20.7c3.4-4.2,9.6-5.3,12.2-3.1
			c2.6,2.3,2.6,7.4-1,20.7C123.2,613.8,103.1,620.6,103.1,620.6L103.1,620.6z"/>
		
			<linearGradient id="SVGID_23_" gradientUnits="userSpaceOnUse" x1="134.669" y1="437.4741" x2="145.0269" y2="409.2578" gradientTransform="matrix(-1 0 0 -1 239.4334 1051.5894)">
			<stop  offset="8.815473e-02" style="stop-color:#1B1408"/>
			<stop  offset="0.9617" style="stop-color:#231F1E"/>
		</linearGradient>
		<path class="st50" d="M104.7,621.3c1.7-3.4,3.4-3.4,0-6.8c-3.4-3.4-5.1,0-6.8,1.7s-2.3,3.7,0,8.5c2,4.4,0.2,5.3-1.7,8.5l-3.4,8.5
			h8.5l3.4-13.5C104.7,628.2,103,624.7,104.7,621.3z"/>
		
			<radialGradient id="SVGID_24_" cx="1281.1611" cy="212.978" r="20.1234" fx="1287.2693" fy="211.3922" gradientTransform="matrix(-0.7071 0.7071 -2.574 -2.574 1544.1927 255.1052)" gradientUnits="userSpaceOnUse">
			<stop  offset="0" style="stop-color:#291E25"/>
			<stop  offset="1" style="stop-color:#1D412B"/>
		</radialGradient>
		<path class="st51" d="M99.1,615.6c-1.9-2.3-5.4,0.1-8.5-8.8c-2.3-6.5-4.8-21.9-11.8-27.9c-2.4-2-6.4-1.5-8.4,0.4
			c-2.2,2-8.1,2.6-1.1,17.4c5.9,12.4,27.7,25.5,30,23.8S99,615.7,99.1,615.6z"/>
		
			<radialGradient id="SVGID_25_" cx="1278.6404" cy="212.1238" r="19.1004" fx="1284.438" fy="210.6187" gradientTransform="matrix(-0.7071 0.7071 -2.574 -2.574 1542.5747 255.5175)" gradientUnits="userSpaceOnUse">
			<stop  offset="0" style="stop-color:#291E25"/>
			<stop  offset="1" style="stop-color:#121D0F"/>
		</radialGradient>
		<path class="st52" d="M100.9,615.7c-1.9-2.3-5.4,0.1-8.5-8.8c-2.3-6.5-2.9-15.3-8.5-22.7c-3.2-4.2-6.6-7.4-9.2-5.2
			s-8,1.8-2.7,17.7c4.3,13,26.8,26.4,29.1,24.7C103.3,619.6,100.8,615.7,100.9,615.7z"/>
		<path class="st53" d="M103.8,638.6c0,0,7.1-2.5,9.4-11.8c1.7-6.8-1.7-12.1,8.5-25.4c3.7-4.8,11.8-5.1,16.9-3.4s6.8,6.8,5.1,20.3
			s-17.3,20-17.3,20L103.8,638.6z"/>
		
			<radialGradient id="SVGID_26_" cx="126.83" cy="441.6653" r="37.0155" gradientTransform="matrix(-1 0 0 -1 239.4334 1051.5894)" gradientUnits="userSpaceOnUse">
			<stop  offset="0" style="stop-color:#28241F"/>
			<stop  offset="0.2331" style="stop-color:#232822"/>
			<stop  offset="0.5197" style="stop-color:#14352B"/>
			<stop  offset="0.7759" style="stop-color:#004637"/>
			<stop  offset="1" style="stop-color:#438F3A"/>
		</radialGradient>
		<path class="st54" d="M107.2,638.6c0,0,8.8-0.8,11.1-10.1c1.7-6.8-0.1-15.5,6.8-23.7c3.9-4.8,8.4-8.5,13.5-6.8s10.2,6.8,8.5,20.3
			s-17.3,20-17.3,20L107.2,638.6z"/>
		
			<linearGradient id="SVGID_27_" gradientUnits="userSpaceOnUse" x1="148.2786" y1="436.4858" x2="181.9358" y2="431.155" gradientTransform="matrix(-1 0 0 -1 239.4334 1051.5894)">
			<stop  offset="0" style="stop-color:#056236"/>
			<stop  offset="1" style="stop-color:#2F2C31"/>
		</linearGradient>
		<path class="st55" d="M91.2,637.8c0,0-5.1-1.9-7.9-12.8c-1.7-7-3.1-21.1-11-26.7c-4.5-3.3-12.8-1.4-16.3,1.2
			c-3.6,2.5-5.5,8-1.2,21.6c4.2,13.6,20.9,17.8,20.9,17.8L91.2,637.8z"/>
		<path class="st56" d="M88.4,639.2c0,0-4.8-1.3-8.5-10.1c-2.6-6.4-4.6-21-12.6-26.3c-4.5-3-9-4.5-12.6-2c-3.5,2.5-3.8,8,0.4,21.1
			c4.2,13.1,17.7,16.9,17.7,16.9L88.4,639.2z"/>
		
			<linearGradient id="SVGID_28_" gradientUnits="userSpaceOnUse" x1="154.326" y1="379.9811" x2="183.375" y2="377.4396" gradientTransform="matrix(-1 0 0 -1 239.4334 1051.5894)">
			<stop  offset="0.2607" style="stop-color:#23210A"/>
			<stop  offset="0.5378" style="stop-color:#32220D"/>
			<stop  offset="0.7928" style="stop-color:#432411"/>
			<stop  offset="0.8577" style="stop-color:#422615"/>
			<stop  offset="0.927" style="stop-color:#412D22"/>
			<stop  offset="0.9981" style="stop-color:#3E3937"/>
			<stop  offset="1" style="stop-color:#3E3938"/>
		</linearGradient>
		<polygon class="st57" points="54,637.7 82.2,637.7 78,708.8 59.1,708.8 		"/>
		
			<linearGradient id="SVGID_29_" gradientUnits="userSpaceOnUse" x1="89.6546" y1="382.0258" x2="164.6014" y2="375.4688" gradientTransform="matrix(-1 0 0 -1 239.4334 1051.5894)">
			<stop  offset="0" style="stop-color:#FFDF7F"/>
			<stop  offset="6.669543e-04" style="stop-color:#FDDD7E"/>
			<stop  offset="1.536119e-02" style="stop-color:#D9B96F"/>
			<stop  offset="3.142666e-02" style="stop-color:#BA9A62"/>
			<stop  offset="4.964950e-02" style="stop-color:#A07E57"/>
			<stop  offset="7.023211e-02" style="stop-color:#8A684E"/>
			<stop  offset="9.426100e-02" style="stop-color:#795747"/>
			<stop  offset="0.124" style="stop-color:#6E4C42"/>
			<stop  offset="0.1657" style="stop-color:#67453F"/>
			<stop  offset="0.2814" style="stop-color:#65433E"/>
			<stop  offset="0.6719" style="stop-color:#63433E"/>
			<stop  offset="0.8125" style="stop-color:#5C413D"/>
			<stop  offset="0.9124" style="stop-color:#513E3B"/>
			<stop  offset="0.993" style="stop-color:#403938"/>
			<stop  offset="1" style="stop-color:#3E3938"/>
		</linearGradient>
		<polygon class="st58" points="72.6,637.7 147,637.7 142,708.8 77.7,708.8 		"/>
		<rect x="62.5" y="708.8" class="st59" width="76.1" height="5.9"/>
		<rect x="62.5" y="708.8" class="st60" width="16.1" height="5.9"/>
	</g>
</g>
</svg>
