<?xml version="1.0" encoding="utf-8"?>
<!-- Generator: Adobe Illustrator 25.0.1, SVG Export Plug-In . SVG Version: 6.00 Build 0)  -->
<svg version="1.1" id="Layer_1" xmlns="http://www.w3.org/2000/svg" xmlns:xlink="http://www.w3.org/1999/xlink" x="0px" y="0px"
	 viewBox="0 0 512 512" style="enable-background:new 0 0 512 512;" xml:space="preserve">
<style type="text/css">
	.st0{fill:#FFFFFF;}
	.st1{fill:#0077B7;}
</style>
<rect x="30" y="41" class="st0" width="441" height="429"/>
<path class="st1" d="M435.2,0.5H76.8C34.4,0.5,0,34.9,0,77.3v358.4c0,39.5,29.8,72,68.1,76.3h375.7c38.3-4.3,68.1-36.8,68.1-76.3
	V77.3C512,34.9,477.6,0.5,435.2,0.5z M158.4,442.1c0,7.4-6,13.5-13.5,13.5H87.6c-7.4,0-13.5-6-13.5-13.5V201.6
	c0-7.4,6-13.5,13.5-13.5H145c7.4,0,13.5,6,13.5,13.5V442.1z M116.3,165.4c-30.1,0-54.5-24.4-54.5-54.5s24.4-54.5,54.5-54.5
	s54.5,24.4,54.5,54.5S146.4,165.4,116.3,165.4z M458.3,326.8l0,116.4c0,6.8-5.5,12.4-12.4,12.4h-61.6c-6.8,0-12.4-5.5-12.4-12.4
	V330.4c0-16.8,4.9-73.7-44-73.7c-37.9,0-45.6,39-47.2,56.4v130.1c0,6.8-5.5,12.4-12.4,12.4h-59.5c-6.8,0-12.4-5.5-12.4-12.4V200.5
	c0-6.8,5.5-12.4,12.4-12.4h59.5c6.8,0,12.4,5.5,12.4,12.4v21c14.1-21.1,35-37.4,79.5-37.4C458.8,184.1,458.3,276.2,458.3,326.8z"/>
</svg>
